<svg width="180" height="180" viewBox="0 0 180 180" fill="none" xmlns="http://www.w3.org/2000/svg">
<path d="M89.6251 5.9751C100.61 5.9751 111.488 8.13877 121.637 12.3426C131.785 16.5464 141.007 22.708 148.775 30.4756C156.542 38.2432 162.704 47.4647 166.908 57.6136C171.111 67.7625 173.275 78.64 173.275 89.6251C173.275 100.61 171.111 111.488 166.908 121.637C162.704 131.785 156.542 141.007 148.775 148.775C141.007 156.542 131.785 162.704 121.637 166.908C111.488 171.111 100.61 173.275 89.6251 173.275C78.64 173.275 67.7625 171.111 57.6136 166.908C47.4647 162.704 38.2432 156.542 30.4756 148.775C22.708 141.007 16.5464 131.785 12.3426 121.637C8.13876 111.488 5.97509 100.61 5.9751 89.625C5.9751 78.64 8.13878 67.7625 12.3426 57.6136C16.5464 47.4647 22.708 38.2432 30.4756 30.4756C38.2433 22.708 47.4648 16.5464 57.6137 12.3426C67.7626 8.13875 78.6401 5.97509 89.6251 5.9751L89.6251 5.9751Z" stroke="#F9F5FF" stroke-width="11.95" stroke-linecap="round" stroke-linejoin="round"/>
<path d="M89.6251 5.9751C108.771 5.9751 127.338 12.543 142.225 24.5823C157.112 36.6216 167.419 53.4035 171.424 72.1259C175.43 90.8484 172.891 110.378 164.232 127.455C155.574 144.531 141.319 158.12 123.849 165.954C106.379 173.787 86.75 175.39 68.2401 170.495C49.7302 165.601 33.4596 154.504 22.1449 139.059C10.8302 123.614 5.15631 104.755 6.07051 85.6309C6.98471 66.5067 14.4317 48.2748 27.1681 33.9794" stroke="#0086C9" stroke-width="11.95" stroke-linecap="round" stroke-linejoin="round"/>
<path d="M89.6251 20.9126C98.6485 20.9126 107.584 22.6899 115.92 26.143C124.257 29.5962 131.832 34.6575 138.212 41.038C144.593 47.4186 149.654 54.9934 153.107 63.33C156.56 71.6666 158.338 80.6016 158.338 89.6251C158.338 98.6486 156.56 107.584 153.107 115.92C149.654 124.257 144.593 131.832 138.212 138.212C131.832 144.593 124.257 149.654 115.92 153.107C107.584 156.56 98.6485 158.338 89.6251 158.338C80.6016 158.338 71.6665 156.56 63.3299 153.107C54.9934 149.654 47.4185 144.593 41.038 138.212C34.6575 131.832 29.5961 124.257 26.143 115.92C22.6899 107.584 20.9126 98.6485 20.9126 89.6251C20.9126 80.6016 22.6899 71.6665 26.143 63.3299C29.5962 54.9933 34.6575 47.4185 41.038 41.038C47.4186 34.6575 54.9934 29.5961 63.33 26.143C71.6666 22.6899 80.6017 20.9126 89.6251 20.9126L89.6251 20.9126Z" stroke="#F9F5FF" stroke-width="11.95" stroke-linecap="round" stroke-linejoin="round"/>
<path d="M89.6251 20.9126C102.883 20.9126 115.857 24.748 126.984 31.9562C138.111 39.1644 146.915 49.4376 152.334 61.5371C157.754 73.6365 159.557 87.0453 157.527 100.147C155.497 113.248 149.72 125.482 140.893 135.374C132.066 145.266 120.566 152.393 107.78 155.896C94.993 159.399 81.4661 159.128 68.8302 155.115C56.1942 151.103 44.9888 143.521 36.5652 133.283C28.1416 123.046 22.8595 110.59 21.3559 97.4178" stroke="#0BA5EC" stroke-width="11.95" stroke-linecap="round" stroke-linejoin="round"/>
<path d="M49.606 77.4717V69.8671H52.3166C52.9058 69.8671 53.3947 69.9686 53.7833 70.1716C54.1744 70.3746 54.4665 70.6556 54.6596 71.0145C54.8527 71.371 54.9492 71.7831 54.9492 72.251C54.9492 72.7164 54.8515 73.126 54.6559 73.48C54.4628 73.8315 54.1707 74.1051 53.7796 74.3006C53.3909 74.4962 52.902 74.594 52.3129 74.594H50.2595V73.6063H52.2089C52.5802 73.6063 52.8822 73.5531 53.1149 73.4466C53.3501 73.3402 53.5221 73.1855 53.6311 72.9825C53.74 72.7795 53.7944 72.5357 53.7944 72.251C53.7944 71.9638 53.7387 71.715 53.6273 71.5046C53.5184 71.2942 53.3464 71.1333 53.1112 71.0219C52.8785 70.9081 52.5728 70.8511 52.1941 70.8511H50.7534V77.4717H49.606ZM53.36 74.0407L55.2389 77.4717H53.9318L52.0901 74.0407H53.36ZM58.6429 77.5868C58.081 77.5868 57.597 77.4667 57.191 77.2266C56.7876 76.984 56.4756 76.6436 56.2553 76.2055C56.0375 75.7649 55.9286 75.2487 55.9286 74.6571C55.9286 74.0729 56.0375 73.558 56.2553 73.1124C56.4756 72.6669 56.7826 72.3191 57.1762 72.069C57.5723 71.819 58.0352 71.694 58.5649 71.694C58.8867 71.694 59.1986 71.7472 59.5006 71.8537C59.8026 71.9601 60.0737 72.1272 60.3138 72.3549C60.5539 72.5827 60.7433 72.8785 60.8819 73.2424C61.0206 73.6038 61.0899 74.0432 61.0899 74.5606V74.9542H56.5561V74.1224H60.0019C60.0019 73.8303 59.9425 73.5716 59.8237 73.3464C59.7049 73.1186 59.5378 72.9392 59.3224 72.808C59.1095 72.6768 58.8595 72.6112 58.5723 72.6112C58.2604 72.6112 57.9881 72.6879 57.7554 72.8414C57.5252 72.9924 57.347 73.1904 57.2208 73.4355C57.097 73.6781 57.0351 73.9417 57.0351 74.2264V74.8762C57.0351 75.2574 57.1019 75.5817 57.2356 75.849C57.3718 76.1164 57.5611 76.3206 57.8037 76.4617C58.0463 76.6003 58.3298 76.6696 58.654 76.6696C58.8644 76.6696 59.0563 76.6399 59.2296 76.5805C59.4029 76.5186 59.5526 76.427 59.6789 76.3057C59.8051 76.1845 59.9017 76.0347 59.9685 75.8565L61.0193 76.0458C60.9351 76.3553 60.7841 76.6263 60.5663 76.859C60.3509 77.0892 60.0799 77.2687 59.7531 77.3974C59.4288 77.5237 59.0588 77.5868 58.6429 77.5868ZM62.3217 77.4717V71.7683H63.3874V72.6966H63.4579C63.5768 72.3822 63.7711 72.1371 64.0409 71.9614C64.3107 71.7831 64.6338 71.694 65.01 71.694C65.3912 71.694 65.7106 71.7831 65.968 71.9614C66.2279 72.1396 66.4198 72.3847 66.5436 72.6966H66.603C66.7391 72.3921 66.9557 72.1495 67.2528 71.9688C67.5498 71.7856 67.9038 71.694 68.3147 71.694C68.8321 71.694 69.2542 71.8561 69.5809 72.1804C69.9102 72.5047 70.0748 72.9936 70.0748 73.6471V77.4717H68.9645V73.7511C68.9645 73.3649 68.8593 73.0852 68.6489 72.9119C68.4385 72.7386 68.1873 72.652 67.8952 72.652C67.5337 72.652 67.2528 72.7634 67.0523 72.9862C66.8518 73.2065 66.7515 73.4899 66.7515 73.8365V77.4717H65.645V73.6805C65.645 73.3711 65.5484 73.1223 65.3554 72.9342C65.1623 72.7461 64.911 72.652 64.6016 72.652C64.3912 72.652 64.1968 72.7077 64.0186 72.8191C63.8429 72.928 63.7005 73.0803 63.5916 73.2758C63.4852 73.4714 63.4319 73.6979 63.4319 73.9553V77.4717H62.3217ZM73.2226 77.5979C72.8612 77.5979 72.5344 77.5311 72.2423 77.3974C71.9502 77.2613 71.7188 77.0645 71.548 76.807C71.3796 76.5496 71.2955 76.234 71.2955 75.8602C71.2955 75.5384 71.3574 75.2735 71.4811 75.0656C71.6049 74.8576 71.772 74.693 71.9824 74.5717C72.1928 74.4504 72.428 74.3588 72.6879 74.2969C72.9478 74.235 73.2127 74.188 73.4825 74.1558C73.8241 74.1162 74.1014 74.084 74.3143 74.0593C74.5272 74.0321 74.6819 73.9887 74.7784 73.9293C74.875 73.8699 74.9232 73.7734 74.9232 73.6397V73.6137C74.9232 73.2894 74.8316 73.0382 74.6485 72.8599C74.4677 72.6817 74.1979 72.5926 73.839 72.5926C73.4652 72.5926 73.1706 72.6755 72.9553 72.8414C72.7424 73.0048 72.5951 73.1867 72.5134 73.3872L71.47 73.1496C71.5938 72.803 71.7745 72.5233 72.0121 72.3104C72.2522 72.095 72.5282 71.9391 72.8401 71.8425C73.1521 71.7435 73.48 71.694 73.8241 71.694C74.0519 71.694 74.2932 71.7212 74.5482 71.7757C74.8056 71.8277 75.0458 71.9242 75.2686 72.0653C75.4938 72.2064 75.6782 72.4082 75.8218 72.6706C75.9654 72.9305 76.0372 73.2684 76.0372 73.6843V77.4717H74.9529V76.6919H74.9084C74.8366 76.8355 74.7289 76.9766 74.5853 77.1152C74.4418 77.2538 74.2573 77.3689 74.0321 77.4605C73.8068 77.5521 73.537 77.5979 73.2226 77.5979ZM73.464 76.7068C73.7709 76.7068 74.0333 76.6461 74.2511 76.5248C74.4715 76.4035 74.6386 76.2451 74.7524 76.0495C74.8688 75.8515 74.9269 75.6399 74.9269 75.4146V74.6794C74.8873 74.719 74.8106 74.7561 74.6967 74.7908C74.5853 74.823 74.4578 74.8514 74.3143 74.8762C74.1707 74.8985 74.0308 74.9195 73.8947 74.9393C73.7585 74.9566 73.6447 74.9715 73.5531 74.9839C73.3377 75.0111 73.1409 75.0569 72.9627 75.1213C72.7869 75.1856 72.6458 75.2784 72.5394 75.3997C72.4354 75.5186 72.3834 75.677 72.3834 75.875C72.3834 76.1498 72.4849 76.3577 72.6879 76.4988C72.8909 76.6375 73.1496 76.7068 73.464 76.7068ZM77.5159 77.4717V71.7683H78.6262V77.4717H77.5159ZM78.0766 70.8883C77.8835 70.8883 77.7177 70.8239 77.5791 70.6952C77.4429 70.564 77.3748 70.408 77.3748 70.2273C77.3748 70.0441 77.4429 69.8882 77.5791 69.7595C77.7177 69.6283 77.8835 69.5627 78.0766 69.5627C78.2697 69.5627 78.4343 69.6283 78.5705 69.7595C78.7091 69.8882 78.7784 70.0441 78.7784 70.2273C78.7784 70.408 78.7091 70.564 78.5705 70.6952C78.4343 70.8239 78.2697 70.8883 78.0766 70.8883ZM81.23 74.0853V77.4717H80.1198V71.7683H81.1855V72.6966H81.256C81.3872 72.3946 81.5927 72.152 81.8724 71.9688C82.1546 71.7856 82.5098 71.694 82.9381 71.694C83.3267 71.694 83.6671 71.7757 83.9592 71.9391C84.2513 72.1 84.4778 72.3401 84.6387 72.6594C84.7996 72.9788 84.8801 73.3736 84.8801 73.8439V77.4717H83.7698V73.9776C83.7698 73.5642 83.6621 73.2412 83.4468 73.0085C83.2314 72.7733 82.9356 72.6557 82.5593 72.6557C82.3019 72.6557 82.0729 72.7114 81.8724 72.8228C81.6744 72.9342 81.5172 73.0976 81.4008 73.3129C81.287 73.5258 81.23 73.7833 81.23 74.0853ZM86.369 77.4717V71.7683H87.4793V77.4717H86.369ZM86.9297 70.8883C86.7366 70.8883 86.5708 70.8239 86.4322 70.6952C86.296 70.564 86.2279 70.408 86.2279 70.2273C86.2279 70.0441 86.296 69.8882 86.4322 69.7595C86.5708 69.6283 86.7366 69.5627 86.9297 69.5627C87.1228 69.5627 87.2874 69.6283 87.4236 69.7595C87.5622 69.8882 87.6315 70.0441 87.6315 70.2273C87.6315 70.408 87.5622 70.564 87.4236 70.6952C87.2874 70.8239 87.1228 70.8883 86.9297 70.8883ZM90.0831 74.0853V77.4717H88.9729V71.7683H90.0386V72.6966H90.1091C90.2403 72.3946 90.4458 72.152 90.7255 71.9688C91.0077 71.7856 91.3629 71.694 91.7912 71.694C92.1798 71.694 92.5202 71.7757 92.8123 71.9391C93.1044 72.1 93.3309 72.3401 93.4918 72.6594C93.6527 72.9788 93.7332 73.3736 93.7332 73.8439V77.4717H92.6229V73.9776C92.6229 73.5642 92.5152 73.2412 92.2999 73.0085C92.0845 72.7733 91.7887 72.6557 91.4124 72.6557C91.155 72.6557 90.926 72.7114 90.7255 72.8228C90.5275 72.9342 90.3703 73.0976 90.2539 73.3129C90.1401 73.5258 90.0831 73.7833 90.0831 74.0853ZM97.6134 79.7293C97.1604 79.7293 96.7705 79.6699 96.4438 79.551C96.1195 79.4322 95.8546 79.275 95.6491 79.0795C95.4437 78.8839 95.2902 78.6698 95.1887 78.4371L96.143 78.0435C96.2098 78.1524 96.2989 78.2675 96.4103 78.3888C96.5242 78.5126 96.6777 78.6178 96.8708 78.7044C97.0663 78.7911 97.3176 78.8344 97.6245 78.8344C98.0454 78.8344 98.3932 78.7317 98.6679 78.5262C98.9427 78.3232 99.0801 77.9989 99.0801 77.5534V76.432H99.0095C98.9427 76.5533 98.8462 76.6882 98.7199 76.8367C98.5962 76.9853 98.4253 77.114 98.2075 77.2229C97.9897 77.3318 97.7062 77.3863 97.3572 77.3863C96.9067 77.3863 96.5007 77.2811 96.1393 77.0707C95.7803 76.8578 95.4957 76.5446 95.2853 76.1312C95.0773 75.7154 94.9733 75.2042 94.9733 74.5977C94.9733 73.9912 95.0761 73.4714 95.2815 73.0382C95.4895 72.605 95.7742 72.2733 96.1356 72.043C96.497 71.8104 96.9067 71.694 97.3646 71.694C97.7186 71.694 98.0045 71.7534 98.2224 71.8722C98.4402 71.9886 98.6098 72.1247 98.7311 72.2807C98.8548 72.4366 98.9501 72.574 99.017 72.6928H99.0987V71.7683H100.187V77.5979C100.187 78.0881 100.073 78.4903 99.845 78.8047C99.6173 79.1191 99.3091 79.3518 98.9204 79.5028C98.5343 79.6538 98.0986 79.7293 97.6134 79.7293ZM97.6023 76.4654C97.9216 76.4654 98.1914 76.3912 98.4117 76.2426C98.6345 76.0916 98.8028 75.8763 98.9167 75.5965C99.0331 75.3143 99.0912 74.9764 99.0912 74.5828C99.0912 74.1992 99.0343 73.8613 98.9204 73.5692C98.8066 73.2771 98.6395 73.0493 98.4192 72.8859C98.1988 72.7201 97.9265 72.6371 97.6023 72.6371C97.2681 72.6371 96.9896 72.7238 96.7668 72.8971C96.544 73.0679 96.3757 73.3006 96.2618 73.5951C96.1504 73.8897 96.0947 74.219 96.0947 74.5828C96.0947 74.9566 96.1517 75.2846 96.2655 75.5668C96.3794 75.849 96.5477 76.0693 96.7705 76.2278C96.9958 76.3862 97.273 76.4654 97.6023 76.4654ZM104.157 70.8548V69.8671H110.042V70.8548H107.67V77.4717H106.526V70.8548H104.157ZM111.254 77.4717V71.7683H112.364V77.4717H111.254ZM111.814 70.8883C111.621 70.8883 111.455 70.8239 111.317 70.6952C111.181 70.564 111.113 70.408 111.113 70.2273C111.113 70.0441 111.181 69.8882 111.317 69.7595C111.455 69.6283 111.621 69.5627 111.814 69.5627C112.007 69.5627 112.172 69.6283 112.308 69.7595C112.447 69.8882 112.516 70.0441 112.516 70.2273C112.516 70.408 112.447 70.564 112.308 70.6952C112.172 70.8239 112.007 70.8883 111.814 70.8883ZM113.858 77.4717V71.7683H114.923V72.6966H114.994C115.113 72.3822 115.307 72.1371 115.577 71.9614C115.847 71.7831 116.17 71.694 116.546 71.694C116.927 71.694 117.246 71.7831 117.504 71.9614C117.764 72.1396 117.956 72.3847 118.079 72.6966H118.139C118.275 72.3921 118.492 72.1495 118.789 71.9688C119.086 71.7856 119.44 71.694 119.851 71.694C120.368 71.694 120.79 71.8561 121.117 72.1804C121.446 72.5047 121.611 72.9936 121.611 73.6471V77.4717H120.5V73.7511C120.5 73.3649 120.395 73.0852 120.185 72.9119C119.974 72.7386 119.723 72.652 119.431 72.652C119.07 72.652 118.789 72.7634 118.588 72.9862C118.388 73.2065 118.287 73.4899 118.287 73.8365V77.4717H117.181V73.6805C117.181 73.3711 117.084 73.1223 116.891 72.9342C116.698 72.7461 116.447 72.652 116.137 72.652C115.927 72.652 115.733 72.7077 115.554 72.8191C115.379 72.928 115.236 73.0803 115.127 73.2758C115.021 73.4714 114.968 73.6979 114.968 73.9553V77.4717H113.858ZM125.557 77.5868C124.995 77.5868 124.511 77.4667 124.105 77.2266C123.701 76.984 123.39 76.6436 123.169 76.2055C122.951 75.7649 122.842 75.2487 122.842 74.6571C122.842 74.0729 122.951 73.558 123.169 73.1124C123.39 72.6669 123.696 72.3191 124.09 72.069C124.486 71.819 124.949 71.694 125.479 71.694C125.801 71.694 126.113 71.7472 126.415 71.8537C126.717 71.9601 126.988 72.1272 127.228 72.3549C127.468 72.5827 127.657 72.8785 127.796 73.2424C127.934 73.6038 128.004 74.0432 128.004 74.5606V74.9542H123.47V74.1224H126.916C126.916 73.8303 126.856 73.5716 126.738 73.3464C126.619 73.1186 126.452 72.9392 126.236 72.808C126.023 72.6768 125.773 72.6112 125.486 72.6112C125.174 72.6112 124.902 72.6879 124.669 72.8414C124.439 72.9924 124.261 73.1904 124.135 73.4355C124.011 73.6781 123.949 73.9417 123.949 74.2264V74.8762C123.949 75.2574 124.016 75.5817 124.149 75.849C124.286 76.1164 124.475 76.3206 124.718 76.4617C124.96 76.6003 125.244 76.6696 125.568 76.6696C125.778 76.6696 125.97 76.6399 126.143 76.5805C126.317 76.5186 126.466 76.427 126.593 76.3057C126.719 76.1845 126.816 76.0347 126.882 75.8565L127.933 76.0458C127.849 76.3553 127.698 76.6263 127.48 76.859C127.265 77.0892 126.994 77.2687 126.667 77.3974C126.343 77.5237 125.973 77.5868 125.557 77.5868Z" fill="#667085"/>
<path d="M41.5982 104.903V102.771L47.2555 97.225C47.7966 96.6787 48.2474 96.1933 48.6081 95.769C48.9689 95.3446 49.2394 94.9335 49.4197 94.5357C49.6001 94.1378 49.6903 93.7135 49.6903 93.2626C49.6903 92.748 49.5736 92.3078 49.3402 91.9418C49.1068 91.5704 48.7858 91.284 48.3774 91.0824C47.969 90.8808 47.5048 90.7801 46.985 90.7801C46.4492 90.7801 45.9798 90.8915 45.5766 91.1142C45.1735 91.3317 44.8605 91.642 44.6377 92.0452C44.4202 92.4483 44.3115 92.9284 44.3115 93.4854H41.5028C41.5028 92.451 41.7388 91.5519 42.2109 90.788C42.683 90.0242 43.3328 89.4327 44.1603 89.0137C44.9931 88.5946 45.9479 88.3851 47.0247 88.3851C48.1175 88.3851 49.0776 88.5893 49.9051 88.9977C50.7326 89.4062 51.3744 89.9658 51.8306 90.6766C52.2921 91.3874 52.5229 92.199 52.5229 93.1114C52.5229 93.7214 52.4062 94.3208 52.1728 94.9096C51.9394 95.4984 51.5283 96.1509 50.9395 96.867C50.356 97.5831 49.5364 98.4504 48.4808 99.4689L45.6721 102.325V102.437H52.7695V104.903H41.5982ZM61.5379 105.214C60.2277 105.214 59.1031 104.882 58.1642 104.219C57.2306 103.551 56.5119 102.588 56.0079 101.331C55.5093 100.068 55.26 98.5485 55.26 96.7715C55.2653 94.9945 55.5173 93.4827 56.0159 92.2362C56.5198 90.9843 57.2386 90.0295 58.1722 89.3717C59.1111 88.714 60.233 88.3851 61.5379 88.3851C62.8428 88.3851 63.9647 88.714 64.9036 89.3717C65.8425 90.0295 66.5613 90.9843 67.0599 92.2362C67.5638 93.488 67.8158 94.9998 67.8158 96.7715C67.8158 98.5538 67.5638 100.076 67.0599 101.339C66.5613 102.596 65.8425 103.556 64.9036 104.219C63.97 104.882 62.8481 105.214 61.5379 105.214ZM61.5379 102.723C62.5564 102.723 63.36 102.222 63.9488 101.219C64.5429 100.211 64.8399 98.7289 64.8399 96.7715C64.8399 95.4772 64.7047 94.3898 64.4341 93.5092C64.1636 92.6287 63.7817 91.9656 63.2884 91.52C62.7951 91.0692 62.2116 90.8437 61.5379 90.8437C60.5247 90.8437 59.7237 91.3476 59.1349 92.3555C58.5461 93.3581 58.2491 94.8301 58.2438 96.7715C58.2385 98.0711 58.3684 99.1638 58.6337 100.05C58.9042 100.936 59.2861 101.604 59.7794 102.055C60.2728 102.5 60.8589 102.723 61.5379 102.723ZM72.2656 102.946C71.7829 102.946 71.3691 102.776 71.0243 102.437C70.6795 102.092 70.5098 101.678 70.5151 101.195C70.5098 100.718 70.6795 100.31 71.0243 99.9701C71.3691 99.6306 71.7829 99.4609 72.2656 99.4609C72.7324 99.4609 73.1382 99.6306 73.483 99.9701C73.8331 100.31 74.0108 100.718 74.0161 101.195C74.0108 101.519 73.9259 101.813 73.7615 102.079C73.6023 102.344 73.3902 102.556 73.1249 102.715C72.865 102.869 72.5786 102.946 72.2656 102.946ZM72.2656 94.8698C71.7829 94.8698 71.3691 94.7001 71.0243 94.3606C70.6795 94.0158 70.5098 93.6021 70.5151 93.1194C70.5098 92.6419 70.6795 92.2335 71.0243 91.894C71.3691 91.5492 71.7829 91.3768 72.2656 91.3768C72.7324 91.3768 73.1382 91.5492 73.483 91.894C73.8331 92.2335 74.0108 92.6419 74.0161 93.1194C74.0108 93.4376 73.9259 93.7294 73.7615 93.9946C73.6023 94.2598 73.3902 94.472 73.1249 94.6311C72.865 94.7903 72.5786 94.8698 72.2656 94.8698ZM76.6637 101.88V99.5325L83.5781 88.6079H85.5355V91.9497H84.342L79.6873 99.3256V99.4529H89.3388V101.88H76.6637ZM84.4375 104.903V101.164L84.4693 100.113V88.6079H87.2541V104.903H84.4375ZM97.5462 105.126C96.4853 105.126 95.5358 104.927 94.6977 104.529C93.8596 104.126 93.1939 103.575 92.7006 102.874C92.2125 102.174 91.9526 101.373 91.9208 100.471H94.7852C94.8383 101.14 95.1274 101.686 95.6525 102.11C96.1777 102.53 96.8089 102.739 97.5462 102.739C98.1244 102.739 98.639 102.606 99.0898 102.341C99.5407 102.076 99.8961 101.707 100.156 101.235C100.416 100.763 100.543 100.225 100.538 99.62C100.543 99.0047 100.413 98.4583 100.148 97.9809C99.8829 97.5035 99.5195 97.1296 99.058 96.859C98.5965 96.5832 98.0661 96.4453 97.4667 96.4453C96.9786 96.44 96.4986 96.5302 96.0265 96.7158C95.5544 96.9015 95.1804 97.1455 94.9046 97.4478L92.2391 97.0102L93.0904 88.6079H102.543V91.0745H95.5332L95.0637 95.395H95.1592C95.4616 95.0396 95.8886 94.7452 96.4402 94.5118C96.9919 94.2731 97.5966 94.1537 98.2544 94.1537C99.241 94.1537 100.122 94.3871 100.896 94.8539C101.67 95.3154 102.28 95.952 102.726 96.7636C103.172 97.5751 103.394 98.5034 103.394 99.5484C103.394 100.625 103.145 101.585 102.647 102.429C102.153 103.267 101.466 103.927 100.586 104.41C99.7105 104.887 98.6973 105.126 97.5462 105.126ZM107.866 102.946C107.383 102.946 106.97 102.776 106.625 102.437C106.28 102.092 106.11 101.678 106.116 101.195C106.11 100.718 106.28 100.31 106.625 99.9701C106.97 99.6306 107.383 99.4609 107.866 99.4609C108.333 99.4609 108.739 99.6306 109.084 99.9701C109.434 100.31 109.611 100.718 109.617 101.195C109.611 101.519 109.526 101.813 109.362 102.079C109.203 102.344 108.991 102.556 108.725 102.715C108.466 102.869 108.179 102.946 107.866 102.946ZM107.866 94.8698C107.383 94.8698 106.97 94.7001 106.625 94.3606C106.28 94.0158 106.11 93.6021 106.116 93.1194C106.11 92.6419 106.28 92.2335 106.625 91.894C106.97 91.5492 107.383 91.3768 107.866 91.3768C108.333 91.3768 108.739 91.5492 109.084 91.894C109.434 92.2335 109.611 92.6419 109.617 93.1194C109.611 93.4376 109.526 93.7294 109.362 93.9946C109.203 94.2598 108.991 94.472 108.725 94.6311C108.466 94.7903 108.179 94.8698 107.866 94.8698ZM118.407 105.126C117.261 105.126 116.243 104.93 115.351 104.537C114.466 104.145 113.765 103.598 113.251 102.898C112.736 102.198 112.463 101.389 112.431 100.471H115.423C115.45 100.912 115.595 101.296 115.861 101.625C116.126 101.949 116.479 102.201 116.919 102.381C117.359 102.561 117.853 102.652 118.399 102.652C118.982 102.652 119.5 102.551 119.95 102.349C120.401 102.142 120.754 101.856 121.009 101.49C121.263 101.124 121.388 100.702 121.383 100.225C121.388 99.7314 121.261 99.2965 121.001 98.9198C120.741 98.5432 120.364 98.2488 119.871 98.0366C119.383 97.8245 118.794 97.7184 118.105 97.7184H116.664V95.4427H118.105C118.672 95.4427 119.168 95.3446 119.592 95.1483C120.022 94.9521 120.359 94.6762 120.603 94.3208C120.847 93.9601 120.966 93.5437 120.961 93.0716C120.966 92.6101 120.863 92.2096 120.651 91.8701C120.444 91.5253 120.149 91.2575 119.767 91.0665C119.391 90.8755 118.948 90.7801 118.439 90.7801C117.94 90.7801 117.479 90.8702 117.054 91.0506C116.63 91.2309 116.288 91.4882 116.028 91.8224C115.768 92.1513 115.63 92.5438 115.614 93H112.773C112.795 92.0876 113.057 91.2866 113.561 90.5971C114.07 89.9022 114.749 89.3611 115.598 88.9739C116.447 88.5813 117.399 88.3851 118.455 88.3851C119.542 88.3851 120.486 88.5893 121.287 88.9977C122.094 89.4009 122.717 89.9446 123.157 90.6289C123.597 91.3132 123.817 92.0691 123.817 92.8966C123.823 93.8142 123.552 94.5834 123.006 95.204C122.465 95.8247 121.754 96.2304 120.873 96.4214V96.5487C122.019 96.7079 122.897 97.1322 123.507 97.8218C124.122 98.5061 124.427 99.3575 124.422 100.376C124.422 101.288 124.162 102.105 123.642 102.827C123.128 103.543 122.417 104.105 121.51 104.513C120.608 104.922 119.574 105.126 118.407 105.126ZM127.75 104.903L134.68 91.1859V91.0745H126.636V88.6079H137.736V91.1302L130.813 104.903H127.75Z" fill="#101828"/>
</svg>
