<svg width="76" height="54" viewBox="0 0 76 54" fill="none" xmlns="http://www.w3.org/2000/svg">
<path d="M43.6124 2.59607C43.3338 2.15707 42.9527 2.00644 42.439 2.10699C42.2731 1.93601 42.1013 1.77834 41.8024 1.81159C41.597 1.83429 41.3935 1.70087 41.2014 1.59797C40.9405 1.45829 40.6822 1.32056 40.3567 1.41486C40.136 1.47863 39.924 1.36556 39.7299 1.2607C39.5625 1.16993 39.3876 1.14606 39.2037 1.1085C38.7796 1.02203 38.357 0.964127 37.9266 0.946518C37.7814 0.940651 37.641 0.910919 37.5134 0.846359C37.3784 0.778282 37.2474 0.768497 37.1003 0.795101C36.8248 0.845184 36.5392 0.752068 36.2653 0.846359C35.9985 0.655426 35.7047 0.816235 35.4245 0.787281C35.2473 0.76889 35.0419 0.717243 34.892 0.896828C34.8509 0.946129 34.7821 0.950436 34.7159 0.930088C34.3474 0.817017 33.9643 0.900352 33.5903 0.850273C33.3391 0.816624 33.1251 0.979385 32.8594 0.979385C32.4666 0.979385 32.0749 0.963737 31.6896 0.919525C31.3683 0.882748 31.078 1.01734 30.7685 1.00521C30.6649 1.18988 30.5181 1.08776 30.3687 1.0909C29.9352 1.10029 29.5071 1.2161 29.0666 1.18167C28.9957 1.17619 28.9159 1.22784 28.8471 1.26579C28.7762 1.30491 28.6929 1.36673 28.628 1.32604C28.3056 1.12337 28.0207 1.31313 27.7222 1.38903C27.4499 1.45829 27.1862 1.58154 26.9092 1.51541C26.7894 1.63279 26.773 1.79399 26.5981 1.89141C26.5371 1.91097 26.4596 1.86011 26.4087 1.77129C26.3696 1.70361 26.3141 1.68521 26.2511 1.70361C25.8516 1.81981 25.3903 1.68991 25.0425 2.02913C24.9337 2.13517 24.7698 2.13673 24.5976 2.11717C24.3253 2.08587 24.0479 2.08195 23.7775 2.21655C23.5839 2.3128 23.3534 2.33823 23.1366 2.38283C22.8819 2.43526 22.6562 2.53112 22.5012 2.78348C22.297 2.6708 22.1096 2.68097 21.9194 2.78857C21.8255 2.84178 21.7109 2.87503 21.6029 2.88403C20.9487 2.93959 20.3231 3.14187 19.6901 3.28859C19.2914 3.38093 18.8692 3.49635 18.5159 3.75967C18.3304 3.89778 18.08 3.93691 17.9008 4.09772C17.7725 4.04099 17.659 3.99051 17.5647 3.94904C17.4012 3.99286 17.4568 4.1967 17.3022 4.2237C17.2627 4.23074 17.2181 4.31721 17.1977 4.30939C16.7431 4.13567 16.4676 4.6447 16.031 4.60635C15.8162 4.58757 15.5795 4.72764 15.3952 4.88375C15.2583 4.99957 15.1127 5.07664 14.9261 5.08095C14.8334 5.0829 14.741 5.12281 14.7148 5.23745C14.66 5.47925 14.5117 5.48668 14.3228 5.39121C14.2829 5.37126 14.2383 5.35992 14.198 5.34505C14.0274 5.44599 13.8208 5.50311 13.732 5.67527C13.5688 5.99141 13.3411 6.05948 13.0152 5.89476C12.9005 6.15026 12.6987 6.24416 12.467 6.33337C11.9662 6.52704 11.4791 6.75827 10.9935 6.98951C10.855 7.05563 10.6602 7.1554 10.6324 7.27278C10.5436 7.65113 10.2228 7.68204 9.95867 7.7912C9.78456 7.86319 9.63784 7.94457 9.48642 8.06586C9.31544 8.20241 9.15268 8.39686 8.87997 8.40547C8.68473 8.41173 8.63387 8.62575 8.54349 8.78891C8.0955 8.73217 7.85488 9.08352 7.57708 9.33628C7.46088 9.44192 7.35211 9.5409 7.21634 9.62111C7.04967 9.71932 6.86616 9.77409 6.802 10.0272C6.73509 10.2929 6.40683 10.3058 6.17833 10.4349C6.09343 10.6356 5.99522 10.7894 5.73503 10.8962C5.41538 11.0273 5.17241 11.3442 4.95839 11.6369C4.84297 11.7945 4.73263 11.9385 4.54326 12.005C4.49944 12.0203 4.44154 12.0324 4.41885 12.0657C4.14379 12.4679 3.7361 12.7645 3.50995 13.2054C3.37223 13.4734 3.20477 13.7152 2.99779 13.9394C2.67774 14.2857 2.37843 14.6523 2.09359 15.0283C1.96604 15.1969 1.81619 15.3304 1.65656 15.4595C1.37133 15.6907 1.14792 15.9669 1.0012 16.3065C0.919818 16.4947 0.832961 16.6849 0.607988 16.778C0.638897 17.0358 0.627942 17.2835 0.5 17.4862C0.518389 17.5425 0.51878 17.5848 0.539126 17.5993C0.676849 17.6967 0.676848 17.9655 0.89517 17.9397C1.12562 17.9127 1.38307 17.8055 1.50671 17.6415C1.71407 17.3672 1.98835 17.1446 2.1425 16.8261C2.29275 16.5159 2.44886 16.2079 2.66483 15.9321C2.73448 15.8429 2.729 15.6946 2.76343 15.5491C3.12417 15.4872 3.21807 15.1762 3.31784 14.882C3.35462 14.7736 3.38083 14.6918 3.48726 14.6214C3.78657 14.4226 4.04363 14.1977 4.19818 13.8397C4.30186 13.599 4.55383 13.4191 4.7518 13.2238C4.97404 13.0043 5.2131 12.8013 5.43885 12.5849C5.63174 12.4002 5.75773 12.1619 6.05039 12.0657C6.29532 11.9851 6.42952 11.7108 6.64432 11.5508C7.08409 11.2225 7.49531 10.8571 7.92491 10.5151C8.00395 10.4521 8.06029 10.3837 8.09472 10.2945C8.16945 10.0988 8.36156 9.99124 8.5161 9.95642C8.73873 9.90595 8.86628 9.79209 9.00987 9.63911C9.14329 9.49708 9.28688 9.36171 9.49659 9.29206C9.9082 9.15551 10.2185 8.81551 10.6324 8.67035C10.6469 8.66527 10.6668 8.65744 10.6723 8.6457C10.8746 8.20202 11.3903 8.18285 11.6974 7.88979C11.9807 7.61943 12.3094 7.44415 12.6529 7.26965C12.8188 7.18513 12.9534 7.04741 13.1568 7.05015C13.2241 7.05132 13.284 7.02942 13.3239 6.9762C13.4851 6.76023 13.7359 6.67611 13.9628 6.57947C14.6186 6.30011 15.2782 6.02662 15.9715 5.8662C16.0369 5.78208 15.9434 5.67136 16.049 5.57863C16.391 5.5125 16.774 5.49646 17.0952 5.2754C17.5878 5.34779 17.9251 4.91936 18.3797 4.87749C18.5257 4.86419 18.5757 4.71825 18.6982 4.68813C19.0136 4.60987 19.2949 4.42442 19.6525 4.47215C19.9131 4.50736 20.1306 4.2597 20.4029 4.25422C20.7206 4.24796 20.9761 3.93495 21.3271 4.06681C21.3658 4.08128 21.4331 4.01086 21.4902 3.9866C21.8384 3.83988 22.1867 3.69394 22.5365 3.55191C22.5932 3.52882 22.6601 3.51318 22.72 3.51865C23.1527 3.56052 23.5447 3.38876 23.9555 3.30659C24.5033 3.19743 24.9975 2.91651 25.5746 2.88403C25.9373 2.86369 26.2933 2.6927 26.6689 2.65202C26.8325 2.63441 26.9154 2.46695 27.0614 2.34605C27.2022 2.48026 27.383 2.5182 27.5676 2.47243C28.2848 2.2948 29.0345 2.41961 29.7466 2.24863C30.1492 2.15199 30.5823 2.18525 30.9575 1.95518C31.1402 1.84328 31.3566 1.90354 31.5569 1.95597C31.7064 1.99509 31.8324 2.01231 32.001 1.94423C32.1904 1.86794 32.4204 1.77756 32.6564 1.93758C32.7671 2.0127 32.9615 2.008 33.0547 1.82255C33.0844 1.76347 33.1454 1.73764 33.1427 1.73764C33.3845 1.73529 33.4037 1.93641 33.5562 1.99079C33.7198 1.92819 33.8943 1.86089 34.0676 1.79438C34.3384 1.9677 34.6189 2.00174 34.9018 1.84211C34.9902 1.79242 35.0657 1.75877 35.1671 1.78577C35.6311 1.90941 36.1002 1.96849 36.5826 1.92662C36.8197 1.90589 37.0244 2.071 37.2732 2.071C37.6281 2.07139 37.9826 2.13164 38.337 2.16803C38.994 2.23571 39.6254 2.4247 40.2632 2.58237C40.4158 2.62033 40.5688 2.6528 40.7218 2.68567C41.2503 2.79992 41.7895 2.88794 42.2731 3.15791C42.4777 3.27216 42.7168 3.2929 42.9378 3.35941C43.2575 3.45527 43.6085 3.48227 43.8788 3.73345C44.0373 3.88096 44.238 3.99521 44.4371 4.08481C45.2291 4.44124 45.9239 4.97062 46.7088 5.34153C46.9283 5.44521 47.113 5.64436 47.2918 5.80634C47.5844 6.07162 47.8994 6.30911 48.2034 6.5556C48.6044 6.88074 48.8983 7.31229 49.3224 7.61121C49.6135 7.81623 49.7821 8.12807 49.9508 8.43364C50.1491 8.79203 50.2998 9.18407 50.6558 9.43174C50.7247 9.47987 50.7427 9.5589 50.7614 9.63754C50.7798 9.71384 50.7916 9.80539 50.8409 9.859C51.3014 10.3614 51.4133 11.0332 51.7118 11.6122C51.9708 12.115 52.0287 12.6655 52.1899 13.1902C52.2158 13.2751 52.1935 13.3745 52.1935 13.4828C52.0346 13.5364 51.8969 13.4914 51.7638 13.4633C51.2904 13.3627 50.8182 13.2551 50.3698 13.0677C50.0478 12.9331 49.6972 12.9417 49.3647 12.8556C49.0305 12.7692 48.6815 12.7437 48.3403 12.6831C48.0801 12.6369 47.8063 12.6459 47.5371 12.6138C47.2761 12.5829 47.0007 12.4914 46.7534 12.5246C46.1923 12.5998 45.6356 12.5078 45.0788 12.5528C44.8597 12.5704 44.6406 12.6127 44.4215 12.5462C44.3773 12.5329 44.3237 12.527 44.2799 12.5387C43.6413 12.7089 42.9824 12.5481 42.3373 12.6573C42.1995 12.6808 42.0876 12.91 41.9182 12.7324C41.696 12.8568 41.491 12.7707 41.2699 12.7085C41.1279 12.6686 40.9604 12.7492 40.8395 12.8498C40.7229 12.9472 40.5934 12.9922 40.4506 13.0071C40.0578 13.0481 39.6841 13.1647 39.3117 13.2872C39.1074 13.3541 38.893 13.3169 38.6786 13.4093C38.3836 13.536 38.0362 13.5349 37.7278 13.6378C37.2384 13.8013 36.7262 13.8937 36.254 14.1088C35.957 14.2442 35.6041 14.2587 35.3639 14.5177C35.3537 14.5287 35.3345 14.542 35.3228 14.5396C34.8752 14.4367 34.604 14.7881 34.2605 14.9516C33.9636 15.0929 33.6435 15.1731 33.3442 15.3151C33.1286 15.4172 33.003 15.5858 32.8535 15.7439C32.6884 15.918 32.4208 15.769 32.2432 15.9568C31.8961 16.3245 31.4086 16.5033 31.0201 16.8113C30.801 16.985 30.5686 17.1333 30.3413 17.2902C30.1781 17.4028 30.2067 17.6083 30.0486 17.7648C29.5607 17.6302 29.326 18.0778 29.0079 18.3266C28.7043 18.5641 28.3952 18.8302 28.2332 19.2093C28.2034 19.2785 28.1549 19.3662 28.0931 19.3912C27.669 19.563 27.4769 19.9269 27.2621 20.2958C27.0954 20.5822 27.0336 20.968 26.6454 21.0955C26.6024 21.1096 26.5793 21.1981 26.5555 21.2556C26.3943 21.6492 26.2096 22.0338 26.1106 22.4501C26.0953 22.5142 26.0824 22.5729 26.0312 22.6148C25.8175 22.7889 25.8328 23.0542 25.7463 23.2815C25.5515 23.7937 25.6294 24.3176 25.6462 24.8289C25.6575 25.1748 25.834 25.5191 25.9584 25.856C26.0355 26.0649 26.1376 26.2602 26.059 26.4926C26.0456 26.5313 26.0523 26.6009 26.0785 26.6256C26.406 26.9359 26.496 27.423 26.8931 27.6886C27.1028 27.8291 27.3411 27.9621 27.4197 28.2478C27.4409 28.324 27.5551 28.3749 27.6271 28.4363C27.8067 28.5893 27.9965 28.7321 28.162 28.8988C28.2461 28.9837 28.3286 29.015 28.439 29.0471C28.6992 29.1222 28.9504 29.2149 29.164 29.4094C29.3588 29.5866 29.6061 29.7349 29.8679 29.7662C30.4035 29.8304 30.8734 30.0859 31.3797 30.233C31.7893 30.3519 32.197 30.4228 32.6208 30.4814C33.2933 30.5746 33.9616 30.5374 34.6295 30.5871C34.966 30.6121 35.2962 30.6736 35.6272 30.5671C35.966 30.7506 36.3338 30.6262 36.6863 30.6657C36.7489 30.6728 36.8209 30.6927 36.8737 30.6712C37.3037 30.4955 37.7631 30.4642 38.2126 30.384C38.5186 30.3296 38.8202 30.2498 39.1239 30.1806C39.1853 30.1665 39.2534 30.1634 39.3054 30.1328C39.7041 29.8981 40.1803 29.9161 40.5973 29.7259C40.838 29.616 41.1361 29.6786 41.3826 29.5186C41.5258 29.4254 41.6979 29.3703 41.8278 29.2545C41.8897 29.1993 41.946 29.1547 42.0282 29.1441C42.6186 29.067 43.1073 28.7623 43.601 28.4586C43.9547 28.2411 44.3605 28.1049 44.6355 27.7685C44.6516 27.7489 44.6997 27.734 44.7204 27.7438C45.0569 27.9011 45.2251 27.6065 45.402 27.4472C45.6508 27.2234 45.8946 27.0055 46.1896 26.8455C46.6051 26.6205 46.9068 26.2402 47.3211 26.009C47.3998 25.9651 47.4674 25.8924 47.5621 25.8826C47.7034 25.8677 47.7722 25.7601 47.8697 25.6807C48.0082 25.5676 47.9354 25.2953 48.1126 25.2785C48.3443 25.2566 48.3114 25.0574 48.4115 24.9545C48.5238 24.8391 48.6357 24.7346 48.786 24.6724C49.1385 24.5269 49.3615 24.253 49.5579 23.9345C49.8111 23.5229 50.1186 23.145 50.3674 22.731C50.6891 22.1962 51.0838 21.7118 51.3965 21.1691C51.5236 20.9484 51.6336 20.7399 51.6844 20.4922C51.7595 20.1252 52.078 19.8537 52.0964 19.4624C52.4321 19.275 52.3296 18.8697 52.519 18.6118C52.7205 18.3376 52.8273 18.0246 52.9052 17.7022C52.9814 17.3868 53.0933 17.0777 53.0894 16.7455C53.0875 16.5882 53.2765 16.5229 53.2663 16.3304C53.2542 16.1007 53.3011 15.8656 53.1896 15.5741C53.5636 15.6567 53.8477 15.6528 54.1529 15.7682C54.6435 15.9532 55.0309 16.3304 55.5508 16.447C55.7132 16.4834 55.8541 16.6125 56.0067 16.6955C56.2555 16.8308 56.4836 17.0073 56.7743 17.0578C56.849 17.0707 56.9281 17.1106 56.9856 17.1603C57.578 17.6767 58.272 18.0602 58.8519 18.5938C59.001 18.7312 59.2345 18.7989 59.3398 18.9577C59.6501 19.4253 60.188 19.6999 60.406 20.2395C60.4173 20.2673 60.4584 20.2852 60.4647 20.3126C60.5077 20.4989 60.7417 20.3698 60.8035 20.522C60.8567 20.6534 60.8884 20.799 61.0046 20.8941C61.1439 21.0079 61.23 21.1386 61.2726 21.3237C61.3242 21.5467 61.5488 21.6637 61.6963 21.8233C62.1592 22.3241 62.5395 22.8738 62.8858 23.4607C63.0998 23.8238 63.2078 24.2518 63.5051 24.5586C63.8749 24.9397 64.0548 25.4581 64.4762 25.8083C64.6484 25.9515 64.6961 26.2433 64.8041 26.466C64.9665 26.8005 65.1355 27.1362 65.2736 27.4778C65.4743 27.9743 65.7197 28.4328 66.0017 28.8871C66.1841 29.1809 66.3547 29.4986 66.4654 29.8511C66.6285 30.3699 66.8148 30.8958 67.1207 31.359C67.1857 31.4572 67.2088 31.5656 67.2209 31.6717C67.2377 31.8188 67.2769 31.9608 67.3641 32.0688C67.5926 32.3509 67.6842 32.6788 67.7088 33.0262C67.7288 33.3095 67.9271 33.5086 68.0152 33.7621C68.2135 34.3353 68.4635 34.8909 68.7026 35.4493C68.8345 35.7572 68.8802 36.0901 68.9092 36.4094C68.9514 36.8699 69.0747 37.3109 69.2159 37.7338C69.3936 38.264 69.4491 38.807 69.5493 39.3462C69.6322 39.7926 69.7132 40.2386 69.8998 40.6569C69.9574 40.786 69.984 40.95 69.9793 41.0626C69.9581 41.5466 70.0481 42.0244 70.0219 42.506C70.0176 42.5842 70.0196 42.6633 70.0266 42.7415C70.061 43.1144 70.1053 43.4869 70.0732 43.8629C70.065 43.9568 70.054 44.0605 70.0834 44.1465C70.3189 44.8457 70.2641 45.5852 70.3952 46.2934C70.4687 46.6905 70.4464 47.0763 70.4777 47.466C70.4879 47.5912 70.4809 47.7219 70.4558 47.8451C70.3463 48.3905 70.3819 48.9391 70.4038 49.4884C70.4136 49.738 70.4054 49.9884 70.4054 50.2165C70.1847 50.3374 70.0689 50.1962 69.9413 50.1156C69.2652 49.6883 68.5821 49.2708 67.9205 48.8225C67.5331 48.5599 67.1669 48.261 66.8187 47.9476C66.6473 47.7935 66.4693 47.6835 66.2576 47.6084C66.0866 47.5477 65.8801 47.5403 65.8323 47.2923C65.8143 47.1991 65.7001 47.1612 65.5964 47.1764C65.1989 47.234 64.9121 47.4863 64.6996 47.7884C64.5009 48.0709 64.5384 48.1734 64.7947 48.3995C65.1222 48.6883 65.3973 49.0404 65.8081 49.2313C65.9204 49.2834 66.033 49.3632 66.1097 49.459C66.4689 49.9066 66.9787 50.1293 67.4604 50.3973C67.6994 50.5303 67.9784 50.6023 68.0915 50.9196C68.1458 51.0726 68.3556 51.1371 68.5203 51.199C68.8505 51.3234 69.1244 51.5413 69.4112 51.7362C69.7324 51.9541 69.8732 52.2957 69.9218 52.6591C69.948 52.8567 69.966 53.0164 70.1413 53.1451C70.2363 53.2147 70.1925 53.3924 70.3267 53.4882C70.5329 53.5465 70.7708 53.5453 71.002 53.5915C71.3808 53.667 71.9254 53.1999 71.9583 52.7883C71.9692 52.6505 72.017 52.5609 72.0772 52.4522C72.2975 52.055 72.4376 51.611 72.7705 51.28C72.7928 51.258 72.8265 51.226 72.8233 51.2033C72.7627 50.7729 73.1058 50.5636 73.3136 50.2744C73.5252 49.9798 73.7616 49.7114 74.0002 49.4399C74.3531 49.0381 74.8301 48.765 75.1302 48.3076C75.2198 48.171 75.3849 48.0689 75.5359 47.9906C75.7648 47.8725 75.8556 47.6773 75.8517 47.4519C75.8482 47.2531 75.9291 47.0829 75.9601 46.903C75.8157 46.5422 75.4815 46.5727 75.1912 46.5219C75.0148 46.491 74.8864 46.5915 74.7851 46.7202C74.6881 46.8435 74.6102 46.9558 74.4185 46.9718C74.2436 46.9863 74.1098 47.1569 74.0315 47.2985C73.9114 47.5161 73.6403 47.6119 73.5937 47.8803C73.5875 47.9155 73.5335 47.959 73.4939 47.9691C73.1207 48.0654 72.9751 48.3839 72.7979 48.6718C72.7815 48.6984 72.7713 48.7305 72.7502 48.7524C72.4141 49.0987 72.1425 49.4946 71.862 49.8843C71.8049 49.9638 71.7137 50.0017 71.5881 50.0138C71.4398 49.7666 71.4786 49.4653 71.4762 49.2055C71.4735 48.8608 71.4762 48.5075 71.5126 48.1601C71.5502 47.7993 71.5236 47.4448 71.4888 47.0829C71.4074 46.2374 71.4175 45.3825 71.3127 44.5409C71.2513 44.0479 71.2391 43.5534 71.2121 43.0631C71.1785 42.4567 71.0775 41.8592 71.0408 41.2532C70.9997 40.572 70.9332 39.8791 70.6832 39.2265C70.6159 39.0508 70.6421 38.863 70.6299 38.6822C70.5975 38.1978 70.6785 37.6818 70.331 37.244C70.169 37.0401 70.108 36.7678 70.1835 36.4814C70.2571 36.202 70.2215 35.9285 70.1115 35.65C69.9222 35.1699 69.7148 34.6914 69.6534 34.1702C69.6498 34.1389 69.6557 34.0986 69.6389 34.0775C69.4405 33.8291 69.2245 33.6248 69.2766 33.2285C69.3173 32.9178 69.1076 32.5954 68.9886 32.2945C68.7586 31.7139 68.5606 31.1094 68.1791 30.598C68.131 30.5339 68.0633 30.4666 68.0879 30.3883C68.2182 29.9685 67.9463 29.7036 67.7162 29.4321C67.6497 29.3534 67.618 29.3041 67.6192 29.1966C67.6235 28.8397 67.5093 28.4989 67.2937 28.2278C66.9239 27.763 66.7573 27.2047 66.5065 26.6851C66.4247 26.5156 66.3864 26.331 66.1946 26.2316C66.1164 26.1909 66.0416 26.1037 66.0096 26.0207C65.9149 25.7758 65.8237 25.534 65.5913 25.3814C65.6301 25.0813 65.3648 24.8829 65.3315 24.6067C65.3241 24.5453 65.3323 24.4392 65.3049 24.4291C64.8417 24.2538 64.909 23.6755 64.54 23.4329C64.4574 23.3785 64.414 23.2972 64.389 23.1997C64.3076 22.8828 64.0451 22.6821 63.8545 22.4446C63.7101 22.2646 63.5771 22.069 63.4171 21.8968C63.3115 21.783 63.2457 21.6339 63.0912 21.5654C63.0129 21.5306 62.9828 21.4575 62.9578 21.3792C62.8987 21.1953 62.8173 21.038 62.6162 20.9539C62.4843 20.8987 62.4225 20.7998 62.48 20.6119C62.5086 20.5188 62.3603 20.3212 62.2433 20.2438C61.9436 20.045 61.8106 19.7054 61.5418 19.482C61.4252 19.385 61.3642 19.2249 61.1865 19.1972C61.1224 19.187 61.0578 19.1334 61.0656 19.0696C61.0946 18.8349 60.8927 18.7194 60.7757 18.6064C60.4568 18.2977 60.2526 17.8485 59.7725 17.7241C59.6986 17.7049 59.6594 17.6623 59.6708 17.5914C59.6861 17.4979 59.6391 17.4529 59.571 17.4009C59.2161 17.1298 58.8562 16.8633 58.5545 16.53C58.2673 16.517 58.1554 16.1133 57.819 16.1993C57.792 16.2064 57.747 16.1469 57.7118 16.1172C57.2215 15.7024 56.6428 15.4532 56.0419 15.2615C55.705 15.1539 55.4695 14.891 55.1502 14.7556C54.9917 14.6887 54.9769 14.4191 54.7593 14.3483C54.6251 14.3045 54.4937 14.2258 54.3548 14.2305C54.1959 14.236 54.086 14.1965 53.9846 14.0728C53.9005 13.9699 53.7597 13.961 53.6352 13.9441C53.375 13.9093 53.2663 13.7505 53.2076 13.5079C53.1258 13.169 53.1192 12.8212 53.0738 12.4796C52.9998 11.9225 52.821 11.4013 52.6101 10.8947C52.2596 10.0527 51.9117 9.20403 51.3413 8.47551C51.2357 8.05138 50.9109 7.75481 50.6151 7.50323C50.2739 7.21292 50.0881 6.81735 49.7653 6.52352C49.455 6.24181 49.1295 5.97106 48.8635 5.64084C48.705 5.44403 48.4616 5.34935 48.2695 5.18541C47.8313 4.81176 47.4283 4.3982 46.9083 4.10593C46.2092 3.71272 45.517 3.30972 44.7885 2.97285C44.774 2.9662 44.758 2.96033 44.7474 2.94938C44.4352 2.63559 44.0627 2.50021 43.6124 2.59607ZM44.8953 26.93C44.6296 26.8799 44.4117 27.0079 44.1777 27.101C43.783 27.2586 43.3807 27.3948 43.0364 27.655C43.0126 27.673 42.9774 27.6769 42.9468 27.6855C42.4163 27.8354 41.9507 28.0834 41.5203 28.4453C41.2038 28.7114 40.7092 28.6464 40.3504 28.8859C39.8935 28.7599 39.4826 28.9763 39.0605 29.076C38.8144 29.1343 38.5573 29.0925 38.3222 29.1891C37.9603 29.3378 37.5397 29.2697 37.1985 29.4947C37.1762 29.5096 37.1312 29.5115 37.1073 29.499C36.8107 29.3425 36.5713 29.4955 36.3048 29.6082C36.1311 29.6817 35.9042 29.7944 35.7195 29.641C35.5881 29.5319 35.4715 29.5479 35.3271 29.5636C35.0192 29.5968 34.6995 29.5092 34.4037 29.679C34.3517 29.7087 34.2523 29.6629 34.1772 29.6434C34.086 29.6199 33.9921 29.5526 33.908 29.5647C33.4897 29.6246 33.1137 29.5272 32.719 29.3832C32.4916 29.3002 32.2467 29.2689 32.0339 29.1269C31.9634 29.08 31.8355 29.0596 31.7608 29.0905C31.5929 29.1606 31.4928 29.0764 31.3762 28.9904C31.3006 28.9344 31.2138 28.8577 31.1301 28.8546C30.765 28.8413 30.4395 28.7012 30.1136 28.5639C29.7818 28.4242 29.4109 28.3522 29.1769 28.0302C29.1151 27.9449 29.0083 27.8432 28.9167 27.8373C28.6776 27.8221 28.5587 27.6405 28.4241 27.5079C28.0563 27.1456 27.7566 26.7175 27.3642 26.376C27.2648 26.2895 27.2296 26.1616 27.194 26.0407C27.1545 25.908 27.077 25.7848 27.0367 25.667C26.917 25.3149 26.6728 24.996 26.7041 24.5973C26.7507 24.0034 26.7977 23.4122 27.0246 22.8484C27.1075 22.6426 27.2296 22.4595 27.3098 22.2548C27.4554 21.8835 27.505 21.4614 27.881 21.2129C27.9229 21.1855 27.9206 21.0975 27.9495 21.0431C28.0008 20.9461 28.0422 20.8346 28.1189 20.7614C28.5149 20.3827 28.8318 19.9347 29.2332 19.5552C29.5642 19.2425 29.8952 18.9483 30.2752 18.6999C30.5256 18.5359 30.7877 18.3712 30.9865 18.1533C31.1891 17.931 31.4212 17.7648 31.6579 17.5895C32.0785 17.2784 32.5715 17.1016 33.0179 16.839C33.4706 16.5726 33.9049 16.2428 34.4205 16.0831C34.7688 15.9751 35.0458 15.7275 35.3815 15.5972C35.5935 15.515 35.8228 15.4978 35.9734 15.2736C36.1468 15.0158 36.4598 15.2654 36.6808 15.1332C36.7215 15.1089 36.7579 15.0776 36.7982 15.0522C36.8503 15.0193 36.9058 14.963 36.9688 14.9962C37.1867 15.1112 37.3683 14.9524 37.5604 14.9133C37.8499 14.8542 38.1242 14.6883 38.4125 14.6644C38.7608 14.6351 39.0922 14.5991 39.4302 14.4903C39.8148 14.3667 40.2253 14.301 40.629 14.265C41.0449 14.2278 41.4249 13.9496 41.8634 14.0865C41.8771 14.0908 41.8987 14.0877 41.9096 14.0791C42.1815 13.8616 42.5114 13.9445 42.8169 13.9066C43.0818 13.8737 43.3436 13.8107 43.6057 13.7853C43.8698 13.7598 44.1754 13.8471 44.3992 13.727C44.6695 13.5818 44.9192 13.6918 45.1571 13.7004C45.5644 13.7152 45.9967 13.6464 46.3868 13.8455C46.4627 13.8843 46.5437 13.8866 46.618 13.8635C46.877 13.7829 47.1251 13.7501 47.3845 13.8858C47.4901 13.941 47.6333 13.9484 47.757 13.9402C48.178 13.9124 48.5923 13.9531 49.0059 14.0228C49.2848 14.0693 49.6033 14.0427 49.8349 14.1726C50.2806 14.4219 50.7564 14.5725 51.2384 14.6789C51.5377 14.745 51.7932 14.8698 52.0534 15.0017C52.2764 15.1148 52.4122 15.2822 52.4114 15.5663C52.411 15.7533 52.3863 15.936 52.384 16.1187C52.3773 16.6465 52.0604 17.0898 52.0127 17.6024C52.0115 17.6161 51.9916 17.627 51.9869 17.6415C51.8601 18.0488 51.5545 18.3736 51.4571 18.7942C51.3906 19.081 51.2611 19.3411 51.1159 19.5962C50.8733 20.0231 50.6405 20.4554 50.4003 20.8839C50.3459 20.9809 50.2833 21.0721 50.27 21.1863C50.2411 21.4293 50.1198 21.6351 49.9738 21.8186C49.6937 22.1707 49.563 22.6477 49.1127 22.8593C49.0998 22.8652 49.0916 22.8828 49.0833 22.8961C48.8568 23.2612 48.5524 23.5554 48.2116 23.8074C48.0665 23.9146 47.9499 24.0339 47.8653 24.1869C47.5723 24.7155 47.0457 24.9901 46.5852 25.3247C46.3786 25.4749 46.2131 25.5974 46.1966 25.8673C45.8993 25.7773 45.7537 25.9691 45.6156 26.1573C45.5808 26.2046 45.573 26.3012 45.5104 26.2973C45.2185 26.2785 45.1261 26.6002 44.8902 26.6115C44.862 26.7332 44.974 26.7876 44.8953 26.93Z" fill="#101828"/>
</svg>
