<svg width="202" height="240" viewBox="0 0 202 240" fill="none" xmlns="http://www.w3.org/2000/svg">
<path d="M101 224.656C156.488 224.656 201.47 179.674 201.47 124.186C201.47 68.6984 156.488 23.7166 101 23.7166C45.512 23.7166 0.530151 68.6984 0.530151 124.186C0.530151 179.674 45.512 224.656 101 224.656Z" fill="#D6EAED"/>
<g filter="url(#filter0_d_232_74598)">
<path d="M158.602 81.3196H43.397C39.6978 81.3196 36.699 84.3184 36.699 88.0176V228.675C36.699 232.375 39.6978 235.373 43.397 235.373H158.602C162.302 235.373 165.3 232.375 165.3 228.675V88.0176C165.3 84.3184 162.302 81.3196 158.602 81.3196Z" fill="white"/>
</g>
<path d="M87.6041 101.413H52.7746C50.5551 101.413 48.7558 103.212 48.7558 105.432C48.7558 107.651 50.5551 109.45 52.7746 109.45H87.6041C89.8237 109.45 91.6229 107.651 91.6229 105.432C91.6229 103.212 89.8237 101.413 87.6041 101.413Z" fill="#E9EFE6"/>
<path d="M111.717 118.828H52.7747C50.5551 118.828 48.7559 120.627 48.7559 122.847C48.7559 125.066 50.5551 126.865 52.7747 126.865H111.717C113.936 126.865 115.736 125.066 115.736 122.847C115.736 120.627 113.936 118.828 111.717 118.828Z" fill="#F3F4F5"/>
<path d="M87.6038 137.583H52.7743C50.5548 137.583 48.7555 139.382 48.7555 141.601C48.7555 143.821 50.5548 145.62 52.7743 145.62H87.6038C89.8234 145.62 91.6226 143.821 91.6226 141.601C91.6226 139.382 89.8234 137.583 87.6038 137.583Z" fill="#E9EFE6"/>
<path d="M111.717 154.997H52.7743C50.5548 154.997 48.7556 156.796 48.7556 159.016C48.7556 161.235 50.5548 163.035 52.7743 163.035H111.717C113.936 163.035 115.735 161.235 115.735 159.016C115.735 156.796 113.936 154.997 111.717 154.997Z" fill="#F3F4F5"/>
<path d="M87.6036 173.752H52.774C50.5545 173.752 48.7552 175.551 48.7552 177.771C48.7552 179.99 50.5545 181.79 52.774 181.79H87.6036C89.8231 181.79 91.6224 179.99 91.6224 177.771C91.6224 175.551 89.8231 173.752 87.6036 173.752Z" fill="#E9EFE6"/>
<path d="M111.716 191.167H52.774C50.5545 191.167 48.7552 192.966 48.7552 195.185C48.7552 197.405 50.5545 199.204 52.774 199.204H111.716C113.936 199.204 115.735 197.405 115.735 195.185C115.735 192.966 113.936 191.167 111.716 191.167Z" fill="#F3F4F5"/>
<g filter="url(#filter1_d_232_74598)">
<path d="M158.603 13H43.3973C39.6981 13 36.6993 15.9988 36.6993 19.698V59.8859C36.6993 63.5851 39.6981 66.5839 43.3973 66.5839H158.603C162.302 66.5839 165.301 63.5851 165.301 59.8859V19.698C165.301 15.9988 162.302 13 158.603 13Z" fill="#CCDFE3"/>
</g>
<path d="M87.6039 27.7363H52.7743C50.5548 27.7363 48.7556 29.5356 48.7556 31.7551C48.7556 33.9746 50.5548 35.7739 52.7743 35.7739H87.6039C89.8234 35.7739 91.6227 33.9746 91.6227 31.7551C91.6227 29.5356 89.8234 27.7363 87.6039 27.7363Z" fill="#E9EFE6"/>
<path d="M111.717 45.1509H52.7743C50.5548 45.1509 48.7556 46.9502 48.7556 49.1697C48.7556 51.3892 50.5548 53.1885 52.7743 53.1885H111.717C113.936 53.1885 115.735 51.3892 115.735 49.1697C115.735 46.9502 113.936 45.1509 111.717 45.1509Z" fill="white"/>
<defs>
<filter id="filter0_d_232_74598" x="28.6614" y="69.2632" width="144.677" height="170.129" filterUnits="userSpaceOnUse" color-interpolation-filters="sRGB">
<feFlood flood-opacity="0" result="BackgroundImageFix"/>
<feColorMatrix in="SourceAlpha" type="matrix" values="0 0 0 0 0 0 0 0 0 0 0 0 0 0 0 0 0 0 127 0" result="hardAlpha"/>
<feOffset dy="-4.01879"/>
<feGaussianBlur stdDeviation="4.01879"/>
<feColorMatrix type="matrix" values="0 0 0 0 0.788235 0 0 0 0 0.803922 0 0 0 0 0.85098 0 0 0 0.349 0"/>
<feBlend mode="normal" in2="BackgroundImageFix" result="effect1_dropShadow_232_74598"/>
<feBlend mode="normal" in="SourceGraphic" in2="effect1_dropShadow_232_74598" result="shape"/>
</filter>
<filter id="filter1_d_232_74598" x="28.6618" y="0.943618" width="144.677" height="69.6592" filterUnits="userSpaceOnUse" color-interpolation-filters="sRGB">
<feFlood flood-opacity="0" result="BackgroundImageFix"/>
<feColorMatrix in="SourceAlpha" type="matrix" values="0 0 0 0 0 0 0 0 0 0 0 0 0 0 0 0 0 0 127 0" result="hardAlpha"/>
<feOffset dy="-4.01879"/>
<feGaussianBlur stdDeviation="4.01879"/>
<feColorMatrix type="matrix" values="0 0 0 0 0.788235 0 0 0 0 0.803922 0 0 0 0 0.85098 0 0 0 0.349 0"/>
<feBlend mode="normal" in2="BackgroundImageFix" result="effect1_dropShadow_232_74598"/>
<feBlend mode="normal" in="SourceGraphic" in2="effect1_dropShadow_232_74598" result="shape"/>
</filter>
</defs>
</svg>
