<svg width="16" height="15" viewBox="0 0 16 15" fill="none" xmlns="http://www.w3.org/2000/svg">
<path d="M7.92893 4.16667C7.92893 3.45942 7.64798 2.78115 7.14789 2.28105C6.64779 1.78095 5.96951 1.5 5.26227 1.5H1.26227V11.5H5.92893C6.45937 11.5 6.96808 11.7107 7.34315 12.0858C7.71822 12.4609 7.92893 12.9696 7.92893 13.5M7.92893 4.16667V13.5M7.92893 4.16667C7.92893 3.45942 8.20989 2.78115 8.70998 2.28105C9.21008 1.78095 9.88836 1.5 10.5956 1.5H14.5956V11.5H9.92893C9.3985 11.5 8.88979 11.7107 8.51472 12.0858C8.13965 12.4609 7.92893 12.9696 7.92893 13.5" stroke="#667085" stroke-width="1.3" stroke-linecap="round" stroke-linejoin="round"/>
</svg>
