<svg width="744" height="200" viewBox="0 0 744 200" fill="none" xmlns="http://www.w3.org/2000/svg">
<line x1="0.5" y1="11" x2="743.5" y2="11" stroke="#F2F4F7" stroke-linecap="round"/>
<line x1="0.5" y1="45.5" x2="743.5" y2="45.5" stroke="#F2F4F7" stroke-linecap="round"/>
<line x1="0.5" y1="77.5" x2="743.5" y2="77.5" stroke="#F2F4F7" stroke-linecap="round"/>
<line x1="0.5" y1="109.5" x2="743.5" y2="109.5" stroke="#F2F4F7" stroke-linecap="round"/>
<line x1="0.5" y1="141.5" x2="743.5" y2="141.5" stroke="#F2F4F7" stroke-linecap="round"/>
<line x1="0.5" y1="173.5" x2="743.5" y2="173.5" stroke="#F2F4F7" stroke-linecap="round"/>
<path d="M28.7493 186.273H29.8061V192.511C29.8061 193.068 29.7038 193.541 29.4993 193.93C29.2947 194.32 29.0064 194.615 28.6342 194.817C28.2621 195.018 27.8232 195.119 27.3175 195.119C26.8402 195.119 26.4155 195.033 26.0433 194.859C25.6712 194.683 25.3786 194.433 25.1655 194.109C24.9524 193.786 24.8459 193.401 24.8459 192.955H25.8857C25.8857 193.202 25.9467 193.418 26.0689 193.602C26.1939 193.784 26.3643 193.926 26.5803 194.028C26.7962 194.131 27.0419 194.182 27.3175 194.182C27.6214 194.182 27.88 194.118 28.093 193.99C28.3061 193.862 28.468 193.675 28.5788 193.428C28.6925 193.178 28.7493 192.872 28.7493 192.511V186.273ZM33.7138 195.153C33.299 195.153 32.9226 195.075 32.5845 194.919C32.2464 194.76 31.978 194.531 31.7791 194.233C31.5803 193.932 31.4808 193.568 31.4808 193.142C31.4808 192.767 31.5547 192.463 31.7024 192.23C31.8501 191.994 32.0476 191.81 32.2947 191.676C32.5419 191.543 32.8146 191.443 33.1129 191.378C33.4141 191.31 33.7166 191.256 34.0206 191.216C34.4183 191.165 34.7408 191.126 34.9879 191.101C35.2379 191.072 35.4197 191.026 35.5334 190.96C35.6499 190.895 35.7081 190.781 35.7081 190.619V190.585C35.7081 190.165 35.593 189.838 35.3629 189.605C35.1357 189.372 34.7905 189.256 34.3274 189.256C33.8473 189.256 33.4709 189.361 33.1982 189.571C32.9254 189.781 32.7337 190.006 32.6229 190.244L31.6683 189.903C31.8388 189.506 32.0661 189.196 32.3501 188.974C32.6371 188.75 32.9496 188.594 33.2876 188.506C33.6286 188.415 33.9638 188.369 34.2933 188.369C34.5036 188.369 34.745 188.395 35.0178 188.446C35.2933 188.494 35.5589 188.595 35.8146 188.749C36.0732 188.902 36.2876 189.134 36.4581 189.443C36.6286 189.753 36.7138 190.168 36.7138 190.688V195H35.7081V194.114H35.657C35.5888 194.256 35.4751 194.408 35.3161 194.57C35.157 194.732 34.9453 194.869 34.6811 194.983C34.4169 195.097 34.0945 195.153 33.7138 195.153ZM33.8672 194.25C34.2649 194.25 34.6001 194.172 34.8729 194.016C35.1484 193.859 35.3558 193.658 35.495 193.411C35.6371 193.163 35.7081 192.903 35.7081 192.631V191.71C35.6655 191.761 35.5717 191.808 35.4268 191.851C35.2848 191.891 35.12 191.926 34.9325 191.957C34.7479 191.986 34.5675 192.011 34.3913 192.034C34.218 192.054 34.0774 192.071 33.9695 192.085C33.7081 192.119 33.4638 192.175 33.2365 192.251C33.0121 192.325 32.8303 192.437 32.6911 192.588C32.5547 192.736 32.4865 192.937 32.4865 193.193C32.4865 193.543 32.6158 193.807 32.8743 193.986C33.1357 194.162 33.4666 194.25 33.8672 194.25ZM39.555 191.062V195H38.5494V188.455H39.521V189.477H39.6062C39.7596 189.145 39.9925 188.878 40.305 188.676C40.6175 188.472 41.021 188.369 41.5153 188.369C41.9585 188.369 42.3462 188.46 42.6786 188.642C43.011 188.821 43.2695 189.094 43.4542 189.46C43.6388 189.824 43.7312 190.284 43.7312 190.841V195H42.7255V190.909C42.7255 190.395 42.592 189.994 42.3249 189.707C42.0579 189.418 41.6914 189.273 41.2255 189.273C40.9045 189.273 40.6175 189.342 40.3647 189.482C40.1147 189.621 39.9173 189.824 39.7724 190.091C39.6275 190.358 39.555 190.682 39.555 191.062Z" fill="#667085"/>
<path d="M85.875 195V186.273H91.1079V187.21H86.9318V190.159H90.7159V191.097H86.9318V195H85.875ZM95.0454 195.136C94.4148 195.136 93.8707 194.997 93.4133 194.719C92.9588 194.438 92.6079 194.045 92.3608 193.543C92.1165 193.037 91.9943 192.449 91.9943 191.778C91.9943 191.108 92.1165 190.517 92.3608 190.006C92.6079 189.491 92.9517 189.091 93.392 188.804C93.8352 188.514 94.3523 188.369 94.9432 188.369C95.2841 188.369 95.6207 188.426 95.9531 188.54C96.2855 188.653 96.5881 188.838 96.8608 189.094C97.1335 189.347 97.3508 189.682 97.5128 190.099C97.6747 190.517 97.7557 191.031 97.7557 191.642V192.068H92.7102V191.199H96.7329C96.7329 190.83 96.6591 190.5 96.5114 190.21C96.3665 189.92 96.1591 189.692 95.8892 189.524C95.6222 189.357 95.3068 189.273 94.9432 189.273C94.5426 189.273 94.196 189.372 93.9034 189.571C93.6136 189.767 93.3906 190.023 93.2344 190.338C93.0781 190.653 93 190.991 93 191.352V191.932C93 192.426 93.0852 192.845 93.2557 193.189C93.429 193.53 93.669 193.79 93.9758 193.969C94.2827 194.145 94.6392 194.233 95.0454 194.233C95.3097 194.233 95.5483 194.196 95.7614 194.122C95.9773 194.045 96.1633 193.932 96.3196 193.781C96.4758 193.628 96.5966 193.437 96.6818 193.21L97.6534 193.483C97.5511 193.812 97.3793 194.102 97.1378 194.352C96.8963 194.599 96.598 194.793 96.2429 194.932C95.8878 195.068 95.4886 195.136 95.0454 195.136ZM99.4219 195V186.273H100.428V189.494H100.513C100.587 189.381 100.689 189.236 100.82 189.06C100.953 188.881 101.143 188.722 101.391 188.582C101.641 188.44 101.979 188.369 102.405 188.369C102.956 188.369 103.442 188.507 103.862 188.783C104.283 189.058 104.611 189.449 104.847 189.955C105.082 190.46 105.2 191.057 105.2 191.744C105.2 192.438 105.082 193.038 104.847 193.547C104.611 194.053 104.284 194.445 103.866 194.723C103.449 194.999 102.967 195.136 102.422 195.136C102.001 195.136 101.665 195.067 101.412 194.928C101.159 194.786 100.964 194.625 100.828 194.446C100.692 194.264 100.587 194.114 100.513 193.994H100.393V195H99.4219ZM100.411 191.727C100.411 192.222 100.483 192.658 100.628 193.036C100.773 193.411 100.984 193.705 101.263 193.918C101.541 194.128 101.882 194.233 102.286 194.233C102.706 194.233 103.057 194.122 103.338 193.901C103.622 193.676 103.835 193.375 103.977 192.997C104.122 192.616 104.195 192.193 104.195 191.727C104.195 191.267 104.124 190.852 103.982 190.483C103.842 190.111 103.631 189.817 103.347 189.601C103.065 189.382 102.712 189.273 102.286 189.273C101.876 189.273 101.533 189.376 101.254 189.584C100.976 189.788 100.766 190.075 100.624 190.445C100.482 190.811 100.411 191.239 100.411 191.727Z" fill="#667085"/>
<path d="M146.742 186.273H148.003L150.969 193.517H151.072L154.037 186.273H155.299V195H154.31V188.369H154.225L151.498 195H150.543L147.816 188.369H147.731V195H146.742V186.273ZM159.208 195.153C158.793 195.153 158.416 195.075 158.078 194.919C157.74 194.76 157.472 194.531 157.273 194.233C157.074 193.932 156.975 193.568 156.975 193.142C156.975 192.767 157.048 192.463 157.196 192.23C157.344 191.994 157.541 191.81 157.789 191.676C158.036 191.543 158.308 191.443 158.607 191.378C158.908 191.31 159.21 191.256 159.514 191.216C159.912 191.165 160.235 191.126 160.482 191.101C160.732 191.072 160.914 191.026 161.027 190.96C161.144 190.895 161.202 190.781 161.202 190.619V190.585C161.202 190.165 161.087 189.838 160.857 189.605C160.629 189.372 160.284 189.256 159.821 189.256C159.341 189.256 158.965 189.361 158.692 189.571C158.419 189.781 158.227 190.006 158.117 190.244L157.162 189.903C157.333 189.506 157.56 189.196 157.844 188.974C158.131 188.75 158.443 188.594 158.781 188.506C159.122 188.415 159.458 188.369 159.787 188.369C159.997 188.369 160.239 188.395 160.512 188.446C160.787 188.494 161.053 188.595 161.308 188.749C161.567 188.902 161.781 189.134 161.952 189.443C162.122 189.753 162.208 190.168 162.208 190.688V195H161.202V194.114H161.151C161.083 194.256 160.969 194.408 160.81 194.57C160.651 194.732 160.439 194.869 160.175 194.983C159.911 195.097 159.588 195.153 159.208 195.153ZM159.361 194.25C159.759 194.25 160.094 194.172 160.367 194.016C160.642 193.859 160.85 193.658 160.989 193.411C161.131 193.163 161.202 192.903 161.202 192.631V191.71C161.159 191.761 161.066 191.808 160.921 191.851C160.779 191.891 160.614 191.926 160.426 191.957C160.242 191.986 160.061 192.011 159.885 192.034C159.712 192.054 159.571 192.071 159.463 192.085C159.202 192.119 158.958 192.175 158.73 192.251C158.506 192.325 158.324 192.437 158.185 192.588C158.048 192.736 157.98 192.937 157.98 193.193C157.98 193.543 158.11 193.807 158.368 193.986C158.629 194.162 158.96 194.25 159.361 194.25ZM164.043 195V188.455H165.015V189.443H165.083C165.202 189.119 165.418 188.857 165.731 188.655C166.043 188.453 166.395 188.352 166.787 188.352C166.861 188.352 166.954 188.354 167.064 188.357C167.175 188.359 167.259 188.364 167.316 188.369V189.392C167.282 189.384 167.204 189.371 167.081 189.354C166.962 189.334 166.836 189.324 166.702 189.324C166.384 189.324 166.1 189.391 165.85 189.524C165.603 189.655 165.407 189.837 165.262 190.07C165.12 190.3 165.049 190.562 165.049 190.858V195H164.043Z" fill="#667085"/>
<path d="M208.926 195H207.818L211.023 186.273H212.113L215.318 195H214.21L211.602 187.653H211.534L208.926 195ZM209.335 191.591H213.801V192.528H209.335V191.591ZM216.541 197.455V188.455H217.513V189.494H217.632C217.706 189.381 217.808 189.236 217.939 189.06C218.072 188.881 218.263 188.722 218.51 188.582C218.76 188.44 219.098 188.369 219.524 188.369C220.075 188.369 220.561 188.507 220.981 188.783C221.402 189.058 221.73 189.449 221.966 189.955C222.202 190.46 222.319 191.057 222.319 191.744C222.319 192.438 222.202 193.038 221.966 193.547C221.73 194.053 221.403 194.445 220.986 194.723C220.568 194.999 220.086 195.136 219.541 195.136C219.121 195.136 218.784 195.067 218.531 194.928C218.278 194.786 218.084 194.625 217.947 194.446C217.811 194.264 217.706 194.114 217.632 193.994H217.547V197.455H216.541ZM217.53 191.727C217.53 192.222 217.602 192.658 217.747 193.036C217.892 193.411 218.103 193.705 218.382 193.918C218.66 194.128 219.001 194.233 219.405 194.233C219.825 194.233 220.176 194.122 220.457 193.901C220.741 193.676 220.954 193.375 221.096 192.997C221.241 192.616 221.314 192.193 221.314 191.727C221.314 191.267 221.243 190.852 221.101 190.483C220.961 190.111 220.75 189.817 220.466 189.601C220.184 189.382 219.831 189.273 219.405 189.273C218.996 189.273 218.652 189.376 218.373 189.584C218.095 189.788 217.885 190.075 217.743 190.445C217.601 190.811 217.53 191.239 217.53 191.727ZM223.853 195V188.455H224.825V189.443H224.893C225.013 189.119 225.228 188.857 225.541 188.655C225.853 188.453 226.206 188.352 226.598 188.352C226.672 188.352 226.764 188.354 226.875 188.357C226.986 188.359 227.069 188.364 227.126 188.369V189.392C227.092 189.384 227.014 189.371 226.892 189.354C226.773 189.334 226.646 189.324 226.513 189.324C226.194 189.324 225.91 189.391 225.66 189.524C225.413 189.655 225.217 189.837 225.072 190.07C224.93 190.3 224.859 190.562 224.859 190.858V195H223.853Z" fill="#667085"/>
<path d="M268.388 186.273H269.649L272.615 193.517H272.718L275.684 186.273H276.945V195H275.956V188.369H275.871L273.144 195H272.189L269.462 188.369H269.377V195H268.388V186.273ZM280.854 195.153C280.439 195.153 280.062 195.075 279.724 194.919C279.386 194.76 279.118 194.531 278.919 194.233C278.72 193.932 278.621 193.568 278.621 193.142C278.621 192.767 278.695 192.463 278.842 192.23C278.99 191.994 279.187 191.81 279.435 191.676C279.682 191.543 279.955 191.443 280.253 191.378C280.554 191.31 280.857 191.256 281.16 191.216C281.558 191.165 281.881 191.126 282.128 191.101C282.378 191.072 282.56 191.026 282.673 190.96C282.79 190.895 282.848 190.781 282.848 190.619V190.585C282.848 190.165 282.733 189.838 282.503 189.605C282.276 189.372 281.93 189.256 281.467 189.256C280.987 189.256 280.611 189.361 280.338 189.571C280.065 189.781 279.874 190.006 279.763 190.244L278.808 189.903C278.979 189.506 279.206 189.196 279.49 188.974C279.777 188.75 280.089 188.594 280.428 188.506C280.768 188.415 281.104 188.369 281.433 188.369C281.643 188.369 281.885 188.395 282.158 188.446C282.433 188.494 282.699 188.595 282.955 188.749C283.213 188.902 283.428 189.134 283.598 189.443C283.768 189.753 283.854 190.168 283.854 190.688V195H282.848V194.114H282.797C282.729 194.256 282.615 194.408 282.456 194.57C282.297 194.732 282.085 194.869 281.821 194.983C281.557 195.097 281.234 195.153 280.854 195.153ZM281.007 194.25C281.405 194.25 281.74 194.172 282.013 194.016C282.288 193.859 282.496 193.658 282.635 193.411C282.777 193.163 282.848 192.903 282.848 192.631V191.71C282.805 191.761 282.712 191.808 282.567 191.851C282.425 191.891 282.26 191.926 282.072 191.957C281.888 191.986 281.707 192.011 281.531 192.034C281.358 192.054 281.217 192.071 281.109 192.085C280.848 192.119 280.604 192.175 280.376 192.251C280.152 192.325 279.97 192.437 279.831 192.588C279.695 192.736 279.626 192.937 279.626 193.193C279.626 193.543 279.756 193.807 280.014 193.986C280.276 194.162 280.607 194.25 281.007 194.25ZM286.103 197.455C285.932 197.455 285.78 197.44 285.647 197.412C285.513 197.386 285.421 197.361 285.37 197.335L285.625 196.449C285.87 196.511 286.086 196.534 286.273 196.517C286.461 196.5 286.627 196.416 286.772 196.266C286.919 196.118 287.054 195.878 287.176 195.545L287.364 195.034L284.944 188.455H286.034L287.841 193.67H287.909L289.716 188.455H290.807L288.029 195.955C287.904 196.293 287.749 196.572 287.564 196.794C287.38 197.018 287.165 197.185 286.921 197.293C286.679 197.401 286.407 197.455 286.103 197.455Z" fill="#667085"/>
<path d="M335.735 186.273H336.792V192.511C336.792 193.068 336.689 193.541 336.485 193.93C336.28 194.32 335.992 194.615 335.62 194.817C335.247 195.018 334.809 195.119 334.303 195.119C333.826 195.119 333.401 195.033 333.029 194.859C332.657 194.683 332.364 194.433 332.151 194.109C331.938 193.786 331.831 193.401 331.831 192.955H332.871C332.871 193.202 332.932 193.418 333.054 193.602C333.179 193.784 333.35 193.926 333.566 194.028C333.782 194.131 334.027 194.182 334.303 194.182C334.607 194.182 334.865 194.118 335.078 193.99C335.292 193.862 335.453 193.675 335.564 193.428C335.678 193.178 335.735 192.872 335.735 192.511V186.273ZM342.898 192.324V188.455H343.904V195H342.898V193.892H342.83C342.676 194.224 342.438 194.507 342.114 194.74C341.79 194.97 341.381 195.085 340.887 195.085C340.478 195.085 340.114 194.996 339.796 194.817C339.478 194.635 339.228 194.362 339.046 193.999C338.864 193.632 338.773 193.17 338.773 192.614V188.455H339.779V192.545C339.779 193.023 339.912 193.403 340.179 193.688C340.449 193.972 340.793 194.114 341.211 194.114C341.461 194.114 341.715 194.05 341.973 193.922C342.235 193.794 342.453 193.598 342.63 193.334C342.809 193.07 342.898 192.733 342.898 192.324ZM346.751 191.062V195H345.746V188.455H346.717V189.477H346.803C346.956 189.145 347.189 188.878 347.501 188.676C347.814 188.472 348.217 188.369 348.712 188.369C349.155 188.369 349.543 188.46 349.875 188.642C350.207 188.821 350.466 189.094 350.651 189.46C350.835 189.824 350.928 190.284 350.928 190.841V195H349.922V190.909C349.922 190.395 349.788 189.994 349.521 189.707C349.254 189.418 348.888 189.273 348.422 189.273C348.101 189.273 347.814 189.342 347.561 189.482C347.311 189.621 347.114 189.824 346.969 190.091C346.824 190.358 346.751 190.682 346.751 191.062Z" fill="#667085"/>
<path d="M396.639 186.273H397.696V192.511C397.696 193.068 397.593 193.541 397.389 193.93C397.184 194.32 396.896 194.615 396.524 194.817C396.152 195.018 395.713 195.119 395.207 195.119C394.73 195.119 394.305 195.033 393.933 194.859C393.561 194.683 393.268 194.433 393.055 194.109C392.842 193.786 392.735 193.401 392.735 192.955H393.775C393.775 193.202 393.836 193.418 393.958 193.602C394.083 193.784 394.254 193.926 394.47 194.028C394.686 194.131 394.931 194.182 395.207 194.182C395.511 194.182 395.769 194.118 395.983 193.99C396.196 193.862 396.358 193.675 396.468 193.428C396.582 193.178 396.639 192.872 396.639 192.511V186.273ZM403.802 192.324V188.455H404.808V195H403.802V193.892H403.734C403.581 194.224 403.342 194.507 403.018 194.74C402.694 194.97 402.285 195.085 401.791 195.085C401.382 195.085 401.018 194.996 400.7 194.817C400.382 194.635 400.132 194.362 399.95 193.999C399.768 193.632 399.677 193.17 399.677 192.614V188.455H400.683V192.545C400.683 193.023 400.816 193.403 401.083 193.688C401.353 193.972 401.697 194.114 402.115 194.114C402.365 194.114 402.619 194.05 402.877 193.922C403.139 193.794 403.358 193.598 403.534 193.334C403.713 193.07 403.802 192.733 403.802 192.324ZM407.656 186.273V195H406.65V186.273H407.656Z" fill="#667085"/>
<path d="M450.445 195H449.337L452.541 186.273H453.632L456.837 195H455.729L453.121 187.653H453.053L450.445 195ZM450.854 191.591H455.32V192.528H450.854V191.591ZM462.185 192.324V188.455H463.19V195H462.185V193.892H462.117C461.963 194.224 461.725 194.507 461.401 194.74C461.077 194.97 460.668 195.085 460.173 195.085C459.764 195.085 459.401 194.996 459.083 194.817C458.764 194.635 458.514 194.362 458.333 193.999C458.151 193.632 458.06 193.17 458.06 192.614V188.455H459.065V192.545C459.065 193.023 459.199 193.403 459.466 193.688C459.736 193.972 460.08 194.114 460.497 194.114C460.747 194.114 461.002 194.05 461.26 193.922C461.521 193.794 461.74 193.598 461.916 193.334C462.095 193.07 462.185 192.733 462.185 192.324ZM467.674 197.591C467.189 197.591 466.771 197.528 466.422 197.403C466.072 197.281 465.781 197.119 465.548 196.918C465.318 196.719 465.135 196.506 464.998 196.278L465.799 195.716C465.89 195.835 466.005 195.972 466.145 196.125C466.284 196.281 466.474 196.416 466.716 196.53C466.96 196.646 467.28 196.705 467.674 196.705C468.203 196.705 468.639 196.577 468.983 196.321C469.326 196.065 469.498 195.665 469.498 195.119V193.79H469.413C469.339 193.909 469.234 194.057 469.098 194.233C468.964 194.406 468.771 194.561 468.518 194.697C468.268 194.831 467.93 194.898 467.504 194.898C466.976 194.898 466.501 194.773 466.081 194.523C465.663 194.273 465.332 193.909 465.088 193.432C464.846 192.955 464.726 192.375 464.726 191.693C464.726 191.023 464.844 190.439 465.079 189.942C465.315 189.442 465.643 189.055 466.064 188.783C466.484 188.507 466.97 188.369 467.521 188.369C467.947 188.369 468.285 188.44 468.535 188.582C468.788 188.722 468.981 188.881 469.115 189.06C469.251 189.236 469.356 189.381 469.43 189.494H469.532V188.455H470.504V195.188C470.504 195.75 470.376 196.207 470.121 196.56C469.868 196.915 469.527 197.175 469.098 197.339C468.672 197.507 468.197 197.591 467.674 197.591ZM467.64 193.994C468.044 193.994 468.385 193.902 468.663 193.717C468.942 193.533 469.153 193.267 469.298 192.92C469.443 192.574 469.515 192.159 469.515 191.676C469.515 191.205 469.444 190.788 469.302 190.428C469.16 190.067 468.95 189.784 468.672 189.58C468.393 189.375 468.049 189.273 467.64 189.273C467.214 189.273 466.859 189.381 466.575 189.597C466.294 189.812 466.082 190.102 465.94 190.466C465.801 190.83 465.731 191.233 465.731 191.676C465.731 192.131 465.802 192.533 465.944 192.882C466.089 193.229 466.302 193.501 466.584 193.7C466.868 193.896 467.22 193.994 467.64 193.994Z" fill="#667085"/>
<path d="M517.4 188.455C517.349 188.023 517.142 187.688 516.778 187.449C516.415 187.21 515.969 187.091 515.44 187.091C515.054 187.091 514.716 187.153 514.426 187.278C514.139 187.403 513.915 187.575 513.753 187.794C513.594 188.013 513.514 188.261 513.514 188.54C513.514 188.773 513.569 188.973 513.68 189.141C513.794 189.305 513.939 189.443 514.115 189.554C514.291 189.662 514.476 189.751 514.669 189.822C514.862 189.891 515.04 189.946 515.201 189.989L516.088 190.227C516.315 190.287 516.568 190.369 516.846 190.474C517.128 190.58 517.396 190.723 517.652 190.905C517.91 191.084 518.123 191.314 518.291 191.595C518.459 191.876 518.542 192.222 518.542 192.631C518.542 193.102 518.419 193.528 518.172 193.909C517.927 194.29 517.569 194.592 517.098 194.817C516.629 195.041 516.059 195.153 515.389 195.153C514.764 195.153 514.223 195.053 513.765 194.851C513.311 194.649 512.953 194.368 512.692 194.007C512.433 193.646 512.287 193.227 512.253 192.75H513.344C513.372 193.08 513.483 193.352 513.676 193.568C513.872 193.781 514.119 193.94 514.417 194.045C514.719 194.148 515.042 194.199 515.389 194.199C515.792 194.199 516.155 194.134 516.476 194.003C516.797 193.869 517.051 193.685 517.238 193.449C517.426 193.21 517.52 192.932 517.52 192.614C517.52 192.324 517.439 192.088 517.277 191.906C517.115 191.724 516.902 191.577 516.638 191.463C516.373 191.349 516.088 191.25 515.781 191.165L514.707 190.858C514.025 190.662 513.486 190.382 513.088 190.018C512.69 189.655 512.491 189.179 512.491 188.591C512.491 188.102 512.623 187.676 512.888 187.312C513.155 186.946 513.513 186.662 513.961 186.46C514.413 186.256 514.917 186.153 515.474 186.153C516.037 186.153 516.537 186.254 516.974 186.456C517.412 186.655 517.758 186.928 518.014 187.274C518.273 187.621 518.409 188.014 518.423 188.455H517.4ZM522.888 195.136C522.257 195.136 521.713 194.997 521.256 194.719C520.801 194.438 520.45 194.045 520.203 193.543C519.959 193.037 519.837 192.449 519.837 191.778C519.837 191.108 519.959 190.517 520.203 190.006C520.45 189.491 520.794 189.091 521.235 188.804C521.678 188.514 522.195 188.369 522.786 188.369C523.127 188.369 523.463 188.426 523.796 188.54C524.128 188.653 524.431 188.838 524.703 189.094C524.976 189.347 525.193 189.682 525.355 190.099C525.517 190.517 525.598 191.031 525.598 191.642V192.068H520.553V191.199H524.575C524.575 190.83 524.502 190.5 524.354 190.21C524.209 189.92 524.002 189.692 523.732 189.524C523.465 189.357 523.149 189.273 522.786 189.273C522.385 189.273 522.038 189.372 521.746 189.571C521.456 189.767 521.233 190.023 521.077 190.338C520.921 190.653 520.842 190.991 520.842 191.352V191.932C520.842 192.426 520.928 192.845 521.098 193.189C521.271 193.53 521.511 193.79 521.818 193.969C522.125 194.145 522.482 194.233 522.888 194.233C523.152 194.233 523.391 194.196 523.604 194.122C523.82 194.045 524.006 193.932 524.162 193.781C524.318 193.628 524.439 193.437 524.524 193.21L525.496 193.483C525.394 193.812 525.222 194.102 524.98 194.352C524.739 194.599 524.44 194.793 524.085 194.932C523.73 195.068 523.331 195.136 522.888 195.136ZM527.128 197.455V188.455H528.1V189.494H528.219C528.293 189.381 528.395 189.236 528.526 189.06C528.659 188.881 528.85 188.722 529.097 188.582C529.347 188.44 529.685 188.369 530.111 188.369C530.662 188.369 531.148 188.507 531.568 188.783C531.989 189.058 532.317 189.449 532.553 189.955C532.788 190.46 532.906 191.057 532.906 191.744C532.906 192.438 532.788 193.038 532.553 193.547C532.317 194.053 531.99 194.445 531.573 194.723C531.155 194.999 530.673 195.136 530.128 195.136C529.708 195.136 529.371 195.067 529.118 194.928C528.865 194.786 528.671 194.625 528.534 194.446C528.398 194.264 528.293 194.114 528.219 193.994H528.134V197.455H527.128ZM528.117 191.727C528.117 192.222 528.189 192.658 528.334 193.036C528.479 193.411 528.69 193.705 528.969 193.918C529.247 194.128 529.588 194.233 529.992 194.233C530.412 194.233 530.763 194.122 531.044 193.901C531.328 193.676 531.541 193.375 531.683 192.997C531.828 192.616 531.901 192.193 531.901 191.727C531.901 191.267 531.83 190.852 531.688 190.483C531.548 190.111 531.337 189.817 531.053 189.601C530.771 189.382 530.418 189.273 529.992 189.273C529.583 189.273 529.239 189.376 528.96 189.584C528.682 189.788 528.472 190.075 528.33 190.445C528.188 190.811 528.117 191.239 528.117 191.727Z" fill="#667085"/>
<path d="M582.182 190.636C582.182 191.557 582.016 192.352 581.684 193.023C581.352 193.693 580.896 194.21 580.316 194.574C579.736 194.938 579.075 195.119 578.33 195.119C577.586 195.119 576.924 194.938 576.344 194.574C575.765 194.21 575.309 193.693 574.977 193.023C574.644 192.352 574.478 191.557 574.478 190.636C574.478 189.716 574.644 188.92 574.977 188.25C575.309 187.58 575.765 187.062 576.344 186.699C576.924 186.335 577.586 186.153 578.33 186.153C579.075 186.153 579.736 186.335 580.316 186.699C580.896 187.062 581.352 187.58 581.684 188.25C582.016 188.92 582.182 189.716 582.182 190.636ZM581.16 190.636C581.16 189.881 581.033 189.243 580.78 188.723C580.53 188.203 580.191 187.81 579.762 187.543C579.336 187.276 578.859 187.142 578.33 187.142C577.802 187.142 577.323 187.276 576.894 187.543C576.468 187.81 576.129 188.203 575.876 188.723C575.626 189.243 575.501 189.881 575.501 190.636C575.501 191.392 575.626 192.03 575.876 192.55C576.129 193.07 576.468 193.463 576.894 193.73C577.323 193.997 577.802 194.131 578.33 194.131C578.859 194.131 579.336 193.997 579.762 193.73C580.191 193.463 580.53 193.07 580.78 192.55C581.033 192.03 581.16 191.392 581.16 190.636ZM586.482 195.136C585.869 195.136 585.34 194.991 584.897 194.702C584.454 194.412 584.113 194.013 583.874 193.504C583.636 192.996 583.516 192.415 583.516 191.761C583.516 191.097 583.638 190.51 583.883 190.001C584.13 189.49 584.474 189.091 584.914 188.804C585.357 188.514 585.874 188.369 586.465 188.369C586.925 188.369 587.34 188.455 587.709 188.625C588.079 188.795 588.381 189.034 588.617 189.341C588.853 189.648 588.999 190.006 589.056 190.415H588.05C587.974 190.116 587.803 189.852 587.539 189.622C587.278 189.389 586.925 189.273 586.482 189.273C586.09 189.273 585.746 189.375 585.451 189.58C585.158 189.781 584.93 190.067 584.765 190.436C584.603 190.803 584.522 191.233 584.522 191.727C584.522 192.233 584.602 192.673 584.761 193.048C584.923 193.423 585.15 193.714 585.442 193.922C585.738 194.129 586.084 194.233 586.482 194.233C586.744 194.233 586.981 194.188 587.194 194.097C587.407 194.006 587.587 193.875 587.735 193.705C587.883 193.534 587.988 193.33 588.05 193.091H589.056C588.999 193.477 588.859 193.825 588.634 194.135C588.413 194.442 588.119 194.686 587.752 194.868C587.388 195.047 586.965 195.136 586.482 195.136ZM593.373 188.455V189.307H589.981V188.455H593.373ZM590.969 186.886H591.975V193.125C591.975 193.409 592.016 193.622 592.099 193.764C592.184 193.903 592.292 193.997 592.423 194.045C592.556 194.091 592.697 194.114 592.844 194.114C592.955 194.114 593.046 194.108 593.117 194.097C593.188 194.082 593.245 194.071 593.288 194.062L593.492 194.966C593.424 194.991 593.329 195.017 593.207 195.043C593.084 195.071 592.93 195.085 592.742 195.085C592.458 195.085 592.18 195.024 591.907 194.902C591.637 194.78 591.413 194.594 591.234 194.344C591.057 194.094 590.969 193.778 590.969 193.398V186.886Z" fill="#667085"/>
<path d="M642.339 186.273V195H641.316L636.56 188.148H636.475V195H635.418V186.273H636.441L641.214 193.142H641.299V186.273H642.339ZM646.976 195.136C646.385 195.136 645.867 194.996 645.421 194.714C644.978 194.433 644.631 194.04 644.381 193.534C644.134 193.028 644.01 192.437 644.01 191.761C644.01 191.08 644.134 190.484 644.381 189.976C644.631 189.467 644.978 189.072 645.421 188.791C645.867 188.51 646.385 188.369 646.976 188.369C647.567 188.369 648.084 188.51 648.527 188.791C648.973 189.072 649.32 189.467 649.567 189.976C649.817 190.484 649.942 191.08 649.942 191.761C649.942 192.437 649.817 193.028 649.567 193.534C649.32 194.04 648.973 194.433 648.527 194.714C648.084 194.996 647.567 195.136 646.976 195.136ZM646.976 194.233C647.425 194.233 647.794 194.118 648.084 193.888C648.374 193.658 648.588 193.355 648.728 192.98C648.867 192.605 648.936 192.199 648.936 191.761C648.936 191.324 648.867 190.916 648.728 190.538C648.588 190.161 648.374 189.855 648.084 189.622C647.794 189.389 647.425 189.273 646.976 189.273C646.527 189.273 646.158 189.389 645.868 189.622C645.578 189.855 645.364 190.161 645.225 190.538C645.086 190.916 645.016 191.324 645.016 191.761C645.016 192.199 645.086 192.605 645.225 192.98C645.364 193.355 645.578 193.658 645.868 193.888C646.158 194.118 646.527 194.233 646.976 194.233ZM656.595 188.455L654.175 195H653.152L650.731 188.455H651.822L653.629 193.67H653.697L655.504 188.455H656.595Z" fill="#667085"/>
<path d="M701.094 195H698.401V186.273H701.213C702.06 186.273 702.784 186.447 703.386 186.797C703.989 187.143 704.45 187.642 704.771 188.293C705.092 188.94 705.253 189.716 705.253 190.619C705.253 191.528 705.091 192.311 704.767 192.967C704.443 193.621 703.972 194.124 703.352 194.476C702.733 194.825 701.98 195 701.094 195ZM699.457 194.062H701.026C701.747 194.062 702.345 193.923 702.82 193.645C703.294 193.366 703.648 192.97 703.881 192.456C704.114 191.942 704.23 191.33 704.23 190.619C704.23 189.915 704.115 189.308 703.885 188.8C703.655 188.288 703.311 187.896 702.854 187.624C702.396 187.348 701.827 187.21 701.145 187.21H699.457V194.062ZM709.633 195.136C709.003 195.136 708.459 194.997 708.001 194.719C707.547 194.438 707.196 194.045 706.949 193.543C706.704 193.037 706.582 192.449 706.582 191.778C706.582 191.108 706.704 190.517 706.949 190.006C707.196 189.491 707.54 189.091 707.98 188.804C708.423 188.514 708.94 188.369 709.531 188.369C709.872 188.369 710.209 188.426 710.541 188.54C710.874 188.653 711.176 188.838 711.449 189.094C711.722 189.347 711.939 189.682 712.101 190.099C712.263 190.517 712.344 191.031 712.344 191.642V192.068H707.298V191.199H711.321C711.321 190.83 711.247 190.5 711.099 190.21C710.954 189.92 710.747 189.692 710.477 189.524C710.21 189.357 709.895 189.273 709.531 189.273C709.131 189.273 708.784 189.372 708.491 189.571C708.202 189.767 707.979 190.023 707.822 190.338C707.666 190.653 707.588 190.991 707.588 191.352V191.932C707.588 192.426 707.673 192.845 707.844 193.189C708.017 193.53 708.257 193.79 708.564 193.969C708.871 194.145 709.227 194.233 709.633 194.233C709.898 194.233 710.136 194.196 710.349 194.122C710.565 194.045 710.751 193.932 710.908 193.781C711.064 193.628 711.185 193.437 711.27 193.21L712.241 193.483C712.139 193.812 711.967 194.102 711.726 194.352C711.484 194.599 711.186 194.793 710.831 194.932C710.476 195.068 710.077 195.136 709.633 195.136ZM716.533 195.136C715.919 195.136 715.391 194.991 714.947 194.702C714.504 194.412 714.163 194.013 713.925 193.504C713.686 192.996 713.567 192.415 713.567 191.761C713.567 191.097 713.689 190.51 713.933 190.001C714.18 189.49 714.524 189.091 714.964 188.804C715.408 188.514 715.925 188.369 716.516 188.369C716.976 188.369 717.391 188.455 717.76 188.625C718.129 188.795 718.432 189.034 718.668 189.341C718.903 189.648 719.05 190.006 719.106 190.415H718.101C718.024 190.116 717.854 189.852 717.589 189.622C717.328 189.389 716.976 189.273 716.533 189.273C716.141 189.273 715.797 189.375 715.501 189.58C715.209 189.781 714.98 190.067 714.815 190.436C714.653 190.803 714.572 191.233 714.572 191.727C714.572 192.233 714.652 192.673 714.811 193.048C714.973 193.423 715.2 193.714 715.493 193.922C715.788 194.129 716.135 194.233 716.533 194.233C716.794 194.233 717.031 194.188 717.244 194.097C717.457 194.006 717.638 193.875 717.785 193.705C717.933 193.534 718.038 193.33 718.101 193.091H719.106C719.05 193.477 718.909 193.825 718.685 194.135C718.463 194.442 718.169 194.686 717.802 194.868C717.439 195.047 717.016 195.136 716.533 195.136Z" fill="#667085"/>
</svg>
