<svg width="17" height="15" viewBox="0 0 17 15" fill="none" xmlns="http://www.w3.org/2000/svg">
<path d="M12.1024 13.5V12.1667C12.1024 11.4594 11.8214 10.7811 11.3213 10.281C10.8212 9.78095 10.1429 9.5 9.4357 9.5H4.10237C3.39512 9.5 2.71684 9.78095 2.21675 10.281C1.71665 10.7811 1.4357 11.4594 1.4357 12.1667V13.5M16.1024 13.5V12.1667C16.1019 11.5758 15.9053 11.0018 15.5433 10.5349C15.1813 10.0679 14.6745 9.73438 14.1024 9.58667M11.4357 1.58667C12.0093 1.73353 12.5177 2.06713 12.8808 2.53487C13.2439 3.00261 13.4409 3.57789 13.4409 4.17C13.4409 4.76211 13.2439 5.33739 12.8808 5.80513C12.5177 6.27287 12.0093 6.60647 11.4357 6.75333M9.4357 4.16667C9.4357 5.63943 8.24179 6.83333 6.76903 6.83333C5.29627 6.83333 4.10237 5.63943 4.10237 4.16667C4.10237 2.69391 5.29627 1.5 6.76903 1.5C8.24179 1.5 9.4357 2.69391 9.4357 4.16667Z" stroke="#667085" stroke-width="1.3" stroke-linecap="round" stroke-linejoin="round"/>
</svg>
