<svg width="20" height="18" viewBox="0 0 20 18" fill="none" xmlns="http://www.w3.org/2000/svg">
<path d="M13.3333 12.3333V1.5H0.833252V12.3333H13.3333ZM13.3333 12.3333H19.1666V8.16667L16.6666 5.66667H13.3333V12.3333ZM6.66658 14.4167C6.66658 15.5673 5.73384 16.5 4.58325 16.5C3.43266 16.5 2.49992 15.5673 2.49992 14.4167C2.49992 13.2661 3.43266 12.3333 4.58325 12.3333C5.73384 12.3333 6.66658 13.2661 6.66658 14.4167ZM17.4999 14.4167C17.4999 15.5673 16.5672 16.5 15.4166 16.5C14.266 16.5 13.3333 15.5673 13.3333 14.4167C13.3333 13.2661 14.266 12.3333 15.4166 12.3333C16.5672 12.3333 17.4999 13.2661 17.4999 14.4167Z" stroke="white" stroke-width="1.67" stroke-linecap="round" stroke-linejoin="round"/>
</svg>
