<svg width="24" height="20" viewBox="0 0 24 20" fill="none" xmlns="http://www.w3.org/2000/svg">
<path d="M15.9995 14L11.9995 9.99998M11.9995 9.99998L7.99947 14M11.9995 9.99998V19M20.3895 16.39C21.3648 15.8583 22.1353 15.0169 22.5793 13.9986C23.0234 12.9804 23.1157 11.8432 22.8417 10.7667C22.5677 9.69013 21.943 8.7355 21.0661 8.05343C20.1893 7.37137 19.1103 7.00072 17.9995 6.99998H16.7395C16.4368 5.82923 15.8726 4.74232 15.0894 3.82098C14.3062 2.89964 13.3243 2.16783 12.2176 1.68059C11.1108 1.19335 9.90802 0.963343 8.69959 1.00787C7.49116 1.05239 6.30854 1.37028 5.24065 1.93765C4.17276 2.50501 3.24738 3.30709 2.53409 4.28357C1.8208 5.26004 1.33816 6.38552 1.12245 7.57538C0.906742 8.76524 0.963577 9.98851 1.28869 11.1532C1.61379 12.318 2.19871 13.3938 2.99947 14.3" stroke="#475467" stroke-width="2" stroke-linecap="round" stroke-linejoin="round"/>
</svg>
