<svg width="16" height="15" viewBox="0 0 16 15" fill="none" xmlns="http://www.w3.org/2000/svg">
<path d="M3.21554 2.78659L6.04221 5.61325M9.81554 9.38659L12.6422 12.2133M12.6422 2.78659L9.81554 5.61325L12.1689 3.25992M3.21554 12.2133L6.04221 9.38659M14.5955 7.49992C14.5955 11.1818 11.6108 14.1666 7.92887 14.1666C4.24698 14.1666 1.26221 11.1818 1.26221 7.49992C1.26221 3.81802 4.24698 0.833252 7.92887 0.833252C11.6108 0.833252 14.5955 3.81802 14.5955 7.49992ZM10.5955 7.49992C10.5955 8.97268 9.40163 10.1666 7.92887 10.1666C6.45611 10.1666 5.26221 8.97268 5.26221 7.49992C5.26221 6.02716 6.45611 4.83325 7.92887 4.83325C9.40163 4.83325 10.5955 6.02716 10.5955 7.49992Z" stroke="#667085" stroke-width="1.3" stroke-linecap="round" stroke-linejoin="round"/>
</svg>
