<svg width="17" height="16" viewBox="0 0 17 16" fill="none" xmlns="http://www.w3.org/2000/svg">
<path d="M6.55967 6.00004C6.71641 5.55449 7.02578 5.17878 7.43298 4.93946C7.84018 4.70015 8.31894 4.61267 8.78446 4.69252C9.24998 4.77236 9.67222 5.01439 9.97639 5.37573C10.2806 5.73706 10.447 6.19439 10.4463 6.66671C10.4463 8.00004 8.44634 8.66671 8.44634 8.66671M8.49967 11.3334H8.50634M15.1663 8.00004C15.1663 11.6819 12.1816 14.6667 8.49967 14.6667C4.81778 14.6667 1.83301 11.6819 1.83301 8.00004C1.83301 4.31814 4.81778 1.33337 8.49967 1.33337C12.1816 1.33337 15.1663 4.31814 15.1663 8.00004Z" stroke="#98A2B3" stroke-width="1.33333" stroke-linecap="round" stroke-linejoin="round"/>
</svg>
