<svg width="14" height="15" viewBox="0 0 14 15" fill="none" xmlns="http://www.w3.org/2000/svg">
<path d="M8.15333 13.5C8.03613 13.7021 7.8679 13.8698 7.66548 13.9864C7.46307 14.103 7.23359 14.1643 7 14.1643C6.76641 14.1643 6.53693 14.103 6.33452 13.9864C6.13211 13.8698 5.96387 13.7021 5.84667 13.5M11 4.83337C11 3.77251 10.5786 2.75509 9.82843 2.00495C9.07828 1.2548 8.06087 0.833374 7 0.833374C5.93913 0.833374 4.92172 1.2548 4.17157 2.00495C3.42143 2.75509 3 3.77251 3 4.83337C3 9.50004 1 10.8334 1 10.8334H13C13 10.8334 11 9.50004 11 4.83337Z" stroke="#026AA2" stroke-width="1.33333" stroke-linecap="round" stroke-linejoin="round"/>
</svg>
