<svg width="152" height="313" viewBox="0 0 152 313" fill="none" xmlns="http://www.w3.org/2000/svg">
<g clip-path="url(#clip0_37_14605)">
<g opacity="0.504511">
<path opacity="0.504511" fill-rule="evenodd" clip-rule="evenodd" d="M126.803 225.521C131.026 257.107 28.6282 277.71 -59.5077 263.332C-147.644 248.954 -188.076 192.806 -146.019 162.888C-103.962 132.97 122.581 193.935 126.803 225.521Z" fill="#F2F2F2"/>
</g>
<path fill-rule="evenodd" clip-rule="evenodd" d="M2.30856 79.5589C0.0499861 78.4389 -2.96093 79.7379 -1.70491 82.6989C-0.359498 85.8696 4.61489 85.9088 7.4242 85.8459C7.14302 85.8312 6.23757 82.9236 5.92759 82.4842C5.01342 81.1881 3.69708 80.2488 2.30856 79.5589ZM28.3314 136.407C28.9012 136.894 28.3778 136.453 28.3314 136.407V136.407ZM0.132818 93.9003C-1.18889 94.9107 -1.25193 96.6947 -0.172267 97.9023C1.11336 99.3398 3.46088 99.2875 5.21322 99.1474C6.00589 99.0839 10.2384 98.745 9.23515 98.0523C9.31233 98.0815 9.47348 98.1522 9.64596 98.2484C9.73878 98.5876 9.83625 98.9256 9.93782 99.2621C9.91293 99.2766 9.89172 99.2922 9.86511 99.3067C9.89392 99.2941 9.91415 99.2804 9.93952 99.2676C10.9574 102.631 12.4062 105.833 14.3032 108.829C13.5935 108.549 12.8583 108.338 12.1127 108.244C9.90462 107.964 5.25958 109.68 7.72947 112.621C10.0977 115.439 13.7847 112.415 16.4725 111.998C19.0795 115.637 21.9539 119.124 24.9662 122.495C24.7817 122.553 24.6197 122.674 24.5268 122.861C23.3183 122.248 22.0591 121.371 20.9407 121.133C19.3268 120.791 16.0174 120.584 14.7976 122.028C13.2973 123.805 14.9055 125.248 16.678 125.588C19.2482 126.083 22.6127 124.827 25.0859 123.978C25.3688 124.028 25.6776 123.945 25.8621 123.719C25.9167 123.701 25.9714 123.684 26.0245 123.666C29.0751 127.021 32.2423 130.264 35.3903 133.437C35.3567 133.435 35.3232 133.433 35.2883 133.431C34.4671 132.893 33.5863 132.451 32.6316 132.219C30.4231 131.681 27.8245 131.678 26.0322 133.276C24.2469 134.868 23.6145 137.651 25.4615 139.438C29.1584 143.015 34.6054 134.859 36.4702 134.519C39.6692 137.709 43.0519 140.689 46.4876 143.61C46.0975 143.491 45.6973 143.404 45.2837 143.364C41.9146 143.042 34.0066 147.173 38.1414 151.237C41.7445 154.779 45.9149 147.962 48.8186 145.578C52.0562 148.3 55.3115 151.003 58.4754 153.812C56.7498 153.354 55.0821 153.286 53.2323 153.845C51.3182 154.425 48.2296 155.87 49.4396 158.455C50.6703 161.083 54.3792 159.887 56.311 159.052C57.3646 158.597 59.4771 157.061 61.3318 156.414C66.3805 161.181 70.7535 166.432 74.0642 172.617C76.131 176.478 77.6995 180.604 78.8034 184.845C79.5081 187.552 80.8966 192.097 80.6186 195.62C81.9435 188.569 79.5479 180.1 76.9673 173.797C74.5944 168.001 71.0433 162.913 66.8839 158.333C67.9277 155.194 76.7133 150.665 71.4611 147.748C68.6721 146.206 65.8155 148.765 65.2059 151.475C64.7871 153.338 65.4251 155.678 66.1022 157.486C64.7937 156.09 63.4335 154.739 62.0318 153.432C60.0948 151.627 58.1113 149.874 56.1089 148.143C59.4086 145.043 62.5315 136.18 58.1072 134.73C51.5739 132.596 54.7197 144.685 55.1754 146.951C55.3049 146.959 55.4057 146.92 55.4799 146.836C55.4432 147.043 55.4005 147.265 55.3489 147.489C51.5163 144.193 47.6269 140.962 43.8656 137.588C44.2044 137.337 44.7432 136.38 45.1666 135.87C46.1221 134.722 47.0364 133.522 47.7045 132.179C48.7599 130.056 49.7779 126.669 46.9801 125.42C43.9374 124.06 42.4915 127.89 42.4702 130.175C42.4558 131.755 42.8861 133.256 43.1103 134.805C43.1804 135.288 42.9106 137.466 43.5686 136.529C43.5376 136.875 43.5331 137.125 43.5485 137.302C42.8732 136.693 42.2031 136.078 41.5373 135.458C41.5682 135.38 41.591 135.294 41.5962 135.195C41.6319 134.514 40.9465 134.252 40.4658 134.451C39.5872 133.616 38.7173 132.771 37.8628 131.908C36.0518 130.082 34.2145 128.203 32.39 126.284C32.7858 125.943 32.6284 125.473 32.9986 125.111C33.3682 124.751 34.0962 124.552 34.5308 124.217C35.6239 123.375 36.5304 122.148 37.186 120.941C38.2683 118.946 39.6671 114.76 36.5052 113.81C33.2462 112.828 31.592 116.857 31.3824 119.375C31.3416 119.863 31.707 124.26 31.9867 125.857C28.6106 122.29 25.2901 118.59 22.2817 114.826C23.1939 114.817 25.7799 112.948 26.3027 112.438C27.5783 111.194 29.6061 108.446 27.3697 106.991C25.3813 105.701 22.9302 107.57 22.0799 109.386C21.9401 109.685 21.4473 112.468 21.4089 113.717C20.1637 112.12 18.976 110.514 17.8709 108.903C17.134 107.832 16.4453 106.733 15.801 105.61C15.9561 105.522 16.102 105.369 16.2398 105.178C19.5563 104.616 23.7845 99.4406 19.889 97.6401C18.0344 96.7839 16.023 98.5512 15.1144 99.9981C14.9283 100.294 14.6268 101.782 14.3815 102.956C12.5278 99.2368 11.1112 95.2992 10.033 91.2619C10.3217 91.1902 10.5663 90.9697 10.5985 90.5903C12.2086 89.6723 13.4801 88.9079 14.6041 87.1426C15.3024 86.0461 16.5599 83.5409 14.5082 82.9323C11.8381 82.1405 10.1609 86.2191 9.94241 88.228C9.91698 88.4612 9.91791 89.1395 9.9267 89.761C9.83401 89.7483 9.7403 89.7498 9.6484 89.766C9.03516 87.2661 8.54567 84.734 8.15637 82.1976C9.61373 81.7285 9.86576 74.0741 8.8954 72.9842C6.72649 70.5438 5.19633 74.0691 5.31211 75.9323C5.4489 78.1292 6.44431 80.1276 7.62959 81.9011C7.75677 82.089 7.72047 82.0799 7.75343 81.8182C7.77165 81.9475 7.81491 82.043 7.87908 82.1121C7.81791 83.2685 7.6987 84.4525 7.75595 85.4758C7.92007 88.4062 8.2614 91.3537 8.75698 94.2464C8.87752 94.9499 9.01558 95.6477 9.17035 96.3395C7.99898 95.3415 6.41966 94.4548 5.80168 94.1775C4.19776 93.4585 1.72593 92.6822 0.132818 93.9003ZM80.8067 195.63C80.7323 196.652 80.5479 197.588 80.2036 198.359C80.4618 197.481 80.6599 196.568 80.8067 195.63Z" fill="#E1E9D9"/>
<path opacity="0.2" fill-rule="evenodd" clip-rule="evenodd" d="M-5.04438 18.1254C-3.43111 17.3253 -1.28047 18.2532 -2.17763 20.3682C-3.13864 22.633 -6.69176 22.661 -8.69841 22.6161C-8.49757 22.6055 -7.85083 20.5287 -7.62941 20.2148C-6.97643 19.289 -6.03617 18.6181 -5.04438 18.1254ZM-23.6198 59.3919C-24.1897 59.8791 -23.6662 59.4376 -23.6198 59.3919V59.3919ZM-3.16936 28.6406C-2.20471 29.3707 -2.15935 30.6607 -2.94809 31.5343C-3.88731 32.5743 -5.6013 32.5373 -6.8807 32.4367C-7.45943 32.3911 -10.5496 32.1476 -9.81685 31.6463C-9.87321 31.6674 -9.99092 31.7186 -10.1169 31.7882C-10.1848 32.0335 -10.2561 32.278 -10.3304 32.5213C-10.3122 32.5318 -10.2967 32.5431 -10.2773 32.5536C-10.2983 32.5445 -10.3131 32.5346 -10.3316 32.5253C-11.076 34.9576 -12.135 37.2737 -13.5213 39.4407C-13.0029 39.2383 -12.4661 39.0851 -11.9216 39.0167C-10.3093 38.8139 -6.91845 40.0531 -8.7229 42.1801C-10.4531 44.2191 -13.144 42.0338 -15.1063 41.7333C-17.0111 44.3655 -19.1111 46.8882 -21.3118 49.3267C-21.177 49.3685 -21.0588 49.4555 -20.9911 49.5911C-20.1085 49.1473 -19.1887 48.5125 -18.372 48.3404C-17.1936 48.0924 -14.7772 47.9411 -13.8871 48.9853C-12.7923 50.2693 -13.9671 51.3133 -15.2614 51.5603C-17.1382 51.9186 -19.5943 51.0117 -21.3997 50.399C-21.6062 50.4353 -21.8317 50.3756 -21.9663 50.212C-22.0062 50.1991 -22.0461 50.1864 -22.0849 50.174C-24.3135 52.6006 -26.6272 54.9473 -28.9268 57.2424C-28.9023 57.2412 -28.8779 57.2397 -28.8524 57.2383C-28.2526 56.8486 -27.6093 56.5287 -26.9122 56.3609C-25.2994 55.9708 -23.4021 55.968 -22.0941 57.1229C-20.7912 58.273 -20.3304 60.2852 -21.6796 61.578C-24.3803 64.1658 -28.3543 58.2706 -29.7157 58.0251C-32.0526 60.3331 -34.5235 62.4896 -37.0332 64.6026C-36.7483 64.5166 -36.4561 64.4533 -36.1541 64.4247C-33.6941 64.1902 -27.9217 67.1743 -30.9421 70.1146C-33.5742 72.6769 -36.6166 67.7493 -38.7359 66.0266C-41.1008 67.996 -43.4786 69.952 -45.7897 71.9841C-44.5296 71.6521 -43.312 71.6027 -41.9616 72.0063C-40.5642 72.4244 -38.3096 73.4685 -39.194 75.3378C-40.0936 77.2388 -42.8012 76.3754 -44.2113 75.7727C-44.9805 75.444 -46.5223 74.334 -47.8763 73.8668C-51.5643 77.3157 -54.7591 81.1139 -57.1787 85.5875C-58.6892 88.3807 -59.8359 91.3647 -60.6435 94.4314C-61.159 96.3889 -62.1744 99.6765 -61.9728 102.224C-62.9375 97.1253 -61.1853 91.0005 -59.2987 86.442C-57.5641 82.2502 -54.9694 78.5698 -51.9308 75.2566C-52.6917 72.9866 -59.1048 69.7154 -55.2689 67.6041C-53.2319 66.4879 -51.1472 68.3374 -50.703 70.2971C-50.398 71.6437 -50.8647 73.3362 -51.3597 74.6437C-50.4038 73.6337 -49.4101 72.6561 -48.3863 71.711C-46.9713 70.4047 -45.5224 69.1364 -44.0597 67.8839C-46.4678 65.6434 -48.7447 59.2358 -45.5138 58.1861C-40.7428 56.6403 -43.0441 65.3832 -43.3778 67.0218C-43.4723 67.0274 -43.5459 66.9991 -43.6 66.9385C-43.5733 67.0886 -43.5422 67.249 -43.5046 67.4108C-40.705 65.0262 -37.864 62.6884 -35.1165 60.2469C-35.3638 60.0659 -35.7569 59.374 -36.0658 59.0058C-36.763 58.1757 -37.4301 57.3085 -37.9175 56.3372C-38.6873 54.8024 -39.4293 52.354 -37.386 51.4499C-35.1639 50.4649 -34.1096 53.234 -34.095 54.8863C-34.085 56.029 -34.3998 57.1146 -34.564 58.2348C-34.6154 58.5841 -34.4192 60.1586 -34.8993 59.4815C-34.8768 59.7312 -34.8736 59.9121 -34.8849 60.0404C-34.3916 59.5999 -33.9022 59.1545 -33.4158 58.7061C-33.4383 58.6495 -33.4549 58.5878 -33.4587 58.5162C-33.4845 58.0236 -32.984 57.8337 -32.6331 57.9778C-31.9913 57.3737 -31.3557 56.7619 -30.7316 56.1381C-29.4086 54.8165 -28.0664 53.4571 -26.7336 52.0688C-27.0225 51.823 -26.9073 51.4824 -27.1775 51.2214C-27.4472 50.9611 -27.9787 50.8173 -28.2959 50.5755C-29.0937 49.9669 -29.7551 49.0801 -30.2333 48.2072C-31.0229 46.765 -32.0426 43.7392 -29.7337 43.0504C-27.3537 42.3393 -26.1474 45.2519 -25.9953 47.0732C-25.9657 47.426 -26.2341 50.6055 -26.4389 51.7601C-23.9726 49.18 -21.5468 46.5032 -19.3489 43.7799C-20.0149 43.7741 -21.9023 42.4236 -22.2839 42.055C-23.2148 41.156 -24.6943 39.1693 -23.0609 38.1167C-21.6086 37.1831 -19.8197 38.5333 -19.1995 39.8462C-19.0976 40.0623 -18.7388 42.0747 -18.7112 42.9776C-17.8015 41.8228 -16.9336 40.6612 -16.1262 39.4959C-15.5877 38.7212 -15.0845 37.926 -14.6136 37.1139C-14.7269 37.0504 -14.8333 36.9396 -14.9339 36.8018C-17.3551 36.3959 -20.4404 32.6555 -17.5955 31.3521C-16.2411 30.7324 -14.7731 32.0095 -14.1103 33.0555C-13.9745 33.2694 -13.7549 34.3455 -13.5762 35.1942C-12.2214 32.504 -11.1856 29.6562 -10.3969 26.7365C-10.6077 26.6848 -10.7861 26.5254 -10.8095 26.2511C-11.9848 25.5878 -12.9129 25.0356 -13.7329 23.7595C-14.2423 22.9669 -15.1596 21.1559 -13.6613 20.715C-11.7115 20.1415 -10.4884 23.0901 -10.3296 24.5427C-10.3111 24.7113 -10.3121 25.2017 -10.3187 25.6511C-10.251 25.6419 -10.1826 25.6429 -10.1155 25.6546C-9.66685 23.8467 -9.30852 22.0156 -9.02334 20.1814C-10.0872 19.8427 -10.2684 14.308 -9.55953 13.5195C-7.97502 11.7541 -6.85908 14.3026 -6.9443 15.6499C-7.04499 17.2385 -7.77253 18.6839 -8.63861 19.9668C-8.73154 20.1027 -8.70504 20.0961 -8.729 19.9069C-8.74235 20.0004 -8.77396 20.0695 -8.82084 20.1195C-8.7766 20.9557 -8.69 21.8117 -8.73219 22.5517C-8.85311 24.6707 -9.10341 26.8022 -9.46632 28.8941C-9.55459 29.4028 -9.65566 29.9075 -9.76892 30.4078C-8.9133 29.6856 -7.75983 29.0439 -7.30852 28.8431C-6.13717 28.3227 -4.33211 27.7604 -3.16936 28.6406ZM-62.1644 102.023C-62.1079 102.704 -61.94 103.325 -61.6094 103.834C-61.8521 103.252 -62.0341 102.646 -62.1644 102.023Z" fill="#C1DEE2"/>
<g opacity="0.7">
<path opacity="0.7" fill-rule="evenodd" clip-rule="evenodd" d="M46.2423 148.773C52.5151 148.447 60.2727 152.109 60.9419 158.928C61.4281 163.883 61.2775 168.823 62.0298 173.77C62.6314 177.724 63.9037 181.52 65.639 185.121C67.3076 188.585 70.7688 191.533 71.6691 195.233C72.2428 197.59 71.9216 200.907 71.1304 203.212C70.1681 206.016 70.6795 205.795 72.5969 208.147C76.3541 212.757 79.7373 217.485 82.1297 222.991C85.5759 230.922 87.8352 240.193 86.5562 248.874C86.3934 249.977 86.2005 253.933 84.6826 254.21C82.9873 254.519 83.78 252.256 83.8705 251.525C84.4473 246.862 84.9599 242.785 84.2641 238.049C81.5792 219.774 68.4704 207.734 59.9348 192.224C59.4656 191.424 58.475 189.519 57.7863 188.263C56.6989 186.279 55.6057 182.504 54.1337 181.033C51.3614 178.262 53.9101 183.833 54.4503 184.897C55.1334 186.242 55.8847 187.672 56.5846 188.851C59.7871 194.315 63.3616 200.279 66.6691 205.912C52.3646 209.172 42.2905 191.973 38.4518 180.666C35.289 171.35 31.5049 149.57 46.2423 148.773Z" fill="#69A1AC"/>
<path opacity="0.7" fill-rule="evenodd" clip-rule="evenodd" d="M130.316 131.473C119.83 132.305 113.098 139.225 109.964 148.904C108.275 154.12 108.082 159.478 107.143 164.839C105.731 172.903 102.693 179.015 96.7564 184.76C94.9175 186.54 93.5624 188.367 92.5991 190.321C90.6868 192.273 89.0222 194.481 87.7992 197.181C86.237 200.63 85.795 204.767 87.5987 208.204C88.0836 209.129 89.2934 210.984 90.5473 211.827C85.8529 221.825 83.2718 232.776 83.5627 243.713C83.7385 250.315 84.0608 256.92 84.4368 263.514C84.538 265.284 85.1145 268.208 85.9804 265.238C86.7729 262.522 85.7791 258.259 85.6872 255.421C85.2397 241.599 84.8572 229.032 90.5465 216.118C91.1431 214.764 91.7757 213.422 92.4345 212.09C92.4731 212.067 92.5091 212.04 92.5454 212.014C92.5705 212.033 92.5933 212.054 92.6184 212.073C92.6605 211.998 92.7181 211.909 92.7853 211.809C92.9743 211.614 93.1393 211.367 93.2962 211.092C93.8008 210.393 94.3719 209.571 94.375 209.122C94.375 209.118 94.3731 209.113 94.3731 209.109C97.8951 203.359 101.929 197.926 106.05 192.6C106.019 192.638 110.519 186.51 109.823 189.899C109.488 191.532 106.178 194.643 104.841 196.372C101.883 200.221 98.4102 205.097 95.5241 209.813C95.1358 210.036 94.5871 211.132 94.1903 211.948C93.9712 212.362 93.7668 212.779 93.5659 213.142C103.792 216.521 111.747 209.715 117.171 201.798C117.178 201.789 117.183 201.779 117.19 201.77C118.84 199.582 120.531 197.41 122.644 195.681C126.168 192.796 129.942 192.287 134.098 190.867C145.43 186.995 150.248 172.307 151.778 161.409C153.504 149.114 145.059 130.261 130.316 131.473Z" fill="#89C5CC"/>
<path opacity="0.7" fill-rule="evenodd" clip-rule="evenodd" d="M109.602 97.0425C98.8402 108.245 93.6407 123.782 89.5236 138.389C84.9253 154.703 81.8881 171.269 81.7715 188.231C81.6951 199.375 81.3919 210.589 82.0423 221.72C82.2731 225.673 82.6671 229.634 83.2936 233.544C83.3452 233.866 84.747 242.598 86.0882 240.563C86.851 239.406 84.6514 231.505 84.4851 230.189C83.5502 222.777 83.3329 215.31 83.3785 207.844C83.4535 195.553 83.0911 183.324 84.3368 171.077C84.5225 169.248 84.6695 167.328 85.1038 165.539C85.5649 163.637 84.9776 164.468 86.4796 163.715C87.939 162.983 89.7424 163.087 91.2566 162.169C97.263 158.527 100.335 149.171 102.727 143.032C105.462 136.011 107.124 128.526 108.452 121.138C109.427 115.71 110.124 110.315 110.519 104.817C110.643 103.084 110.65 101.272 110.991 99.5686C111.082 99.109 111.543 98.2961 111.526 97.8891C111.491 97.0277 110.971 96.5211 110.928 95.7973C110.478 96.2028 110.035 96.6181 109.602 97.0425Z" fill="#89C5CC"/>
<path opacity="0.7" fill-rule="evenodd" clip-rule="evenodd" d="M50.9188 246.293C50.9188 264.819 65.9354 279.837 84.4594 279.837C102.983 279.837 118 264.819 118 246.293" fill="#89C5CC"/>
<path opacity="0.7" fill-rule="evenodd" clip-rule="evenodd" d="M87.1508 246.399H85.3785C85.5015 244.176 85.6639 241.956 86.0357 239.757C87.4574 231.347 91.9028 218.994 101.653 217.629C102.012 217.578 103.336 217.57 104.938 217.664C105.698 217.239 106.549 216.983 107.445 216.923C115.746 216.311 125.017 223.009 129.021 229.979C132.249 235.598 131.705 242.977 129.711 248.948C128.376 252.944 125.462 258.643 120.603 258.699C114.523 258.768 114.23 251.254 114.113 246.861C113.956 241.02 113.218 235.932 108.617 231.951C107.544 231.024 106.372 230.208 105.289 229.293C103.592 227.862 101.718 226.396 101.499 224.028C101.198 220.761 103.042 220.173 105.857 220.78C106.337 220.883 111.172 223.053 110.456 221.338C110.238 220.814 109.439 220.399 108.432 220.088C105.825 219.804 102.716 219.475 101.821 219.672C92.1747 221.788 88.4189 235.152 87.4214 243.643C87.3138 244.559 87.2267 245.479 87.1508 246.399Z" fill="#69A1AC"/>
</g>
<g opacity="0.5">
<path opacity="0.5" fill-rule="evenodd" clip-rule="evenodd" d="M3.06042 183.009C8.08463 179.32 13.5229 186.282 8.97655 189.972C6.4632 192.011 3.83565 191.286 2.3564 189.586C1.39614 190.757 0.497353 191.981 -0.366253 193.015C-2.99744 196.165 -5.48432 199.39 -7.86105 202.691C-12.7983 209.548 -17.0295 216.793 -21.4535 223.905C-25.8194 230.924 -30.1504 237.979 -34.1076 245.176C-37.4599 251.274 -41.9281 258.447 -43.0758 265.132C-41.3344 250.955 -34.7266 237.328 -26.8578 224.83C-19.0531 212.434 -10.0962 198.896 1.98845 189.114C0.758526 187.305 0.724388 184.723 3.06042 183.009Z" fill="#C1DEE2"/>
<path opacity="0.5" fill-rule="evenodd" clip-rule="evenodd" d="M33.1239 108.85C33.2873 108.614 34.3509 106.975 33.8153 107.08C34.9057 106.866 32.3155 108.888 35.0324 107.647C33.7424 108.866 34.4869 110.449 34.5042 112.089C34.5322 114.751 34.0868 117.392 33.5854 119.997C32.7931 124.115 31.6128 128.119 29.8996 131.95C26.1656 140.297 19.825 148.333 12.2976 153.552C8.58155 156.129 4.93964 157.006 0.701466 158.193C-1.97554 158.942 -2.18784 160.327 -3.6088 162.925C-6.56715 168.336 -9.4728 173.727 -12.0818 179.321C-15.1971 186 -18.2213 192.687 -21.074 199.484C-30.6843 222.379 -38.5062 246.099 -42.614 270.646C-42.7146 256.18 -39.3685 241.282 -35.1477 227.494C-32.0731 217.448 -28.0705 207.764 -23.8014 198.178C-22.7669 195.856 -21.1992 192.869 -20.7599 190.305C-20.4523 188.508 -21.3927 186.781 -21.8233 184.888C-23.502 177.519 -23.3819 169.263 -21.9077 161.854C-20.2824 153.685 -15.582 149.893 -7.63061 148.736C-4.72264 148.313 -1.02654 148.468 1.63993 147.228C4.54501 145.878 5.7434 141.439 7.39533 138.59C11.8324 130.936 17.1042 123.596 23.1577 117.147C24.8339 115.362 26.6364 113.714 28.5488 112.187C29.7547 111.224 32.3021 110.037 33.1239 108.85Z" fill="#89C5CC"/>
</g>
<path fill-rule="evenodd" clip-rule="evenodd" d="M138.048 56.8987C136.677 52.3261 133.459 48.7472 130.118 45.468C123.614 39.0842 120.117 35.1372 117.799 25.7989C116.436 20.3068 115.048 14.4869 110.725 10.5023C107.576 7.60065 102.158 5.16275 97.9481 7.24056C91.4712 11.1068 89.7319 19.041 90.385 26.1456C91.1946 34.9512 95.3074 40.3807 103.209 43.624C107.661 45.4507 110.62 47.8609 113.037 52.0607C114.97 55.419 116.097 59.6243 118.526 62.6687C122.158 67.2197 126.703 69.2428 132.305 68.4868C127.058 58.832 120.927 49.0866 113.533 40.9576C112.841 40.1404 108.758 37.0124 109.582 35.6196C110.489 34.086 114.68 39.8467 114.65 39.8119C116.799 42.2788 118.787 44.9002 120.74 47.5467C120.735 47.5493 120.729 47.5507 120.724 47.5534C122.734 50.2691 124.729 53.0249 126.685 55.8152C127.476 56.9954 128.246 58.1908 128.983 59.4161C130.065 61.2142 131.782 66.3173 133.552 67.4229C133.931 67.6593 134.281 67.7914 134.609 67.8459C135.816 69.8238 136.992 71.8175 138.11 73.8348C141.029 79.1034 143.534 84.6664 144.684 90.6147C145.019 92.3508 144.782 98.8451 145.967 100.098C148.133 102.391 147.499 97.9763 147.369 96.6438C146.293 85.6096 142.332 76.209 136.581 66.9325C138.348 64.6249 138.603 58.7514 138.048 56.8987Z" fill="#E1E9D9"/>
<path fill-rule="evenodd" clip-rule="evenodd" d="M63.8441 62.2301C66.1282 59.5387 71.6188 59.0821 74.9768 59.2622C79.1321 59.4851 83.4001 60.4967 87.3533 61.72C93.8655 63.7347 100.193 67.4115 105.929 70.9702C106.62 71.399 115.135 76.5203 114.381 77.4191C113.635 78.3096 105.275 72.2262 103.412 71.1777C99.437 68.9397 95.791 66.2929 91.4088 64.815C86.8714 63.2844 82.0728 62.6784 77.3014 62.7202C76.6891 62.7256 74.6916 62.2986 74.6485 63.2047C74.6063 64.0908 77.9114 63.6285 78.4943 63.6338C80.9013 63.6559 83.3233 63.8825 85.6963 64.2997C90.1423 65.0812 94.3221 66.6557 98.13 69.0708C97.0675 71.5414 94.5204 72.6806 91.8485 72.0624C89.5393 71.5277 87.2881 70.2096 85.0269 69.8285C83.4696 69.566 81.9102 69.7222 80.4 70.161C76.4166 71.3187 74.1191 73.6906 69.7394 72.0407C66.306 70.7474 60.5639 66.1007 63.8441 62.2301Z" fill="#D9DFD1"/>
<path fill-rule="evenodd" clip-rule="evenodd" d="M66.4271 36.7599H67.5077C67.432 35.3885 67.3334 34.0193 67.1017 32.6632C66.2331 27.5801 63.5171 20.1144 57.5604 19.2894C57.3407 19.2586 56.5323 19.2535 55.5531 19.3103C55.089 19.0537 54.5692 18.8986 54.0215 18.8629C48.9499 18.493 43.2862 22.541 40.8399 26.7535C38.8678 30.1498 39.2 34.6097 40.4181 38.2181C41.2338 40.6338 43.014 44.0781 45.9828 44.1116C49.6971 44.1537 49.8762 39.6118 49.948 36.9567C50.0435 33.4268 50.4943 30.3517 53.3057 27.9456C53.961 27.3851 54.6772 26.8919 55.339 26.3392C56.3754 25.474 57.5207 24.5882 57.6542 23.1569C57.8385 21.1822 56.7119 20.8268 54.9917 21.1937C54.6985 21.2561 51.7446 22.5675 52.1819 21.531C52.3154 21.2143 52.8032 20.9634 53.4187 20.7754C55.0115 20.6041 56.9111 20.4052 57.4574 20.524C63.351 21.8032 65.6456 29.8802 66.255 35.0118C66.324 35.5929 66.3792 36.176 66.4271 36.7599H66.4271Z" fill="#F2F2F2"/>
</g>
<defs>
<clipPath id="clip0_37_14605">
<rect width="340" height="312.461" fill="white" transform="translate(-188)"/>
</clipPath>
</defs>
</svg>
