<svg width="130" height="245" viewBox="0 0 130 245" fill="none" xmlns="http://www.w3.org/2000/svg">
<g opacity="0.5">
<path opacity="0.5" fill-rule="evenodd" clip-rule="evenodd" d="M82.7295 51.5092C84.6603 48.7559 88.2433 41.7633 90.9608 40.7795C92.7112 40.1458 92.2009 46.7008 92.2225 47.9507C92.3067 52.7864 91.8359 57.5914 91.2546 62.3865C90.2073 71.0344 86.7828 78.736 82.0858 86.0963C79.6688 89.8836 76.8339 93.7168 72.9074 96.0799C71.1 97.1681 68.9253 97.3503 67.1404 98.288C65.0616 99.3795 66.1937 98.4971 65.2569 100.663C63.9559 103.671 63.5397 107.552 62.9378 110.761C60.1739 125.494 53.4827 203.374 54.6427 218.36C54.7458 219.689 52.8938 220.006 52.8013 218.385C52.3099 209.787 56.5621 150.246 58.7074 130.774C60.8526 111.303 63.0235 94.1004 65.2003 87.3639C67.8411 79.191 72.6104 69.3624 76.5806 61.7409C78.4247 58.2 80.4348 54.7812 82.7295 51.5092Z" fill="#69A1AC"/>
<path opacity="0.5" fill-rule="evenodd" clip-rule="evenodd" d="M97.0604 147.009C102.085 143.32 107.523 150.282 102.977 153.972C100.463 156.011 97.8356 155.286 96.3564 153.586C95.3961 154.757 94.4973 155.981 93.6337 157.015C91.0025 160.165 88.5156 163.39 86.1389 166.691C81.2016 173.548 76.9705 180.793 72.5465 187.905C68.1806 194.924 63.8496 201.979 59.8924 209.176C56.5401 215.274 52.0719 222.447 50.9242 229.132C52.6656 214.955 59.2734 201.328 67.1422 188.83C74.9469 176.434 83.9038 162.896 95.9884 153.114C94.7585 151.305 94.7244 148.723 97.0604 147.009Z" fill="#C1DEE2"/>
<path opacity="0.5" fill-rule="evenodd" clip-rule="evenodd" d="M1.72224 112.433C4.53378 112.983 9.12781 119.344 11.4454 121.767C14.1996 124.647 16.6984 127.717 19.0538 130.933C24.1245 137.856 28.6594 145.216 32.5155 152.892C38.8021 165.404 43.8385 178.249 47.4936 191.875C49.731 200.216 51.1796 208.86 52.0382 217.445C52.2003 219.064 53.8975 231.546 51.4519 231.882C49.2523 232.185 49.9317 222.404 49.8256 221.074C48.6261 206.064 45.0327 191.46 40.0344 177.312C38.9457 174.231 37.9343 170.456 36.1932 167.682C34.9393 165.685 36.1842 166.381 33.9807 165.625C32.0887 164.976 29.933 165.135 27.9956 164.339C23.7866 162.613 20.4164 159.262 17.4623 155.891C11.7213 149.34 7.1718 142.253 4.80036 133.859C3.48485 129.205 2.27596 124.524 1.6051 119.726C1.43156 118.486 -0.0886576 112.079 1.72224 112.433Z" fill="#69A1AC"/>
<path opacity="0.5" fill-rule="evenodd" clip-rule="evenodd" d="M12.8172 6.60295C23.4077 24.9712 32.1105 45.1483 37.73 65.5847C41.1348 77.9668 43.5158 90.6727 45.8816 103.287C49.5445 122.818 53.0092 142.348 53.9948 162.226C54.9863 182.22 56.947 205.28 50.4007 224.537C53.6706 204.986 50.5575 184.176 50.0063 164.503C49.7429 155.112 48.9795 145.812 47.9782 136.476C47.0065 127.419 45.4191 118.406 43.9408 109.42C43.2207 105.044 42.4644 100.674 41.6944 96.3071C41.4646 95.0041 41.3675 91.1378 40.541 90.2477C39.7092 89.3517 35.4653 88.9865 34.1329 88.3291C31.4499 87.005 28.9262 85.1242 26.6927 83.1369C22.4109 79.3273 18.686 74.3496 15.746 69.4428C8.94364 58.089 6.22405 44.2334 6.36151 31.0843C6.38792 28.5314 10.4933 1.04019 8.84449 0.661614C8.94376 0.545343 9.03766 0.42529 9.12621 0.300415C10.3745 2.39059 11.5994 4.49493 12.8172 6.60295Z" fill="#89C5CC"/>
<path opacity="0.5" fill-rule="evenodd" clip-rule="evenodd" d="M127.124 72.8499C127.287 72.6142 128.351 70.9749 127.815 71.0796C128.906 70.8663 126.315 72.8877 129.032 71.6474C127.742 72.8658 128.487 74.4486 128.504 76.0885C128.532 78.751 128.087 81.3917 127.585 83.997C126.793 88.1153 125.613 92.1195 123.9 95.95C120.166 104.297 113.825 112.333 106.298 117.552C102.582 120.129 98.9396 121.006 94.7014 122.193C92.0244 122.942 91.8121 124.327 90.3912 126.925C87.4328 132.336 84.5272 137.727 81.9182 143.321C78.8029 150 75.7786 156.687 72.9259 163.484C63.3157 186.379 55.4938 210.099 51.386 234.646C51.2854 220.18 54.6315 205.282 58.8523 191.494C61.9269 181.448 65.9295 171.764 70.1986 162.178C71.2331 159.856 72.8008 156.869 73.2401 154.305C73.5477 152.508 72.6072 150.781 72.1766 148.888C70.498 141.519 70.6181 133.263 72.0922 125.854C73.7176 117.685 78.418 113.893 86.3694 112.736C89.2773 112.313 92.9734 112.468 95.6399 111.228C98.545 109.878 99.7434 105.439 101.395 102.59C105.832 94.9364 111.104 87.5962 117.158 81.1474C118.834 79.3617 120.636 77.7142 122.549 76.1872C123.755 75.2237 126.302 74.0368 127.124 72.8499Z" fill="#89C5CC"/>
<path opacity="0.5" fill-rule="evenodd" clip-rule="evenodd" d="M37.9635 219.023H66.1822C67.4509 219.023 68.4795 220.052 68.4795 221.32C68.4795 221.433 68.4712 221.545 68.4549 221.656L66.2738 236.446C65.6089 240.955 61.7402 244.296 57.183 244.296H46.9627C42.4055 244.296 38.5367 240.955 37.8718 236.446L35.6908 221.656C35.5057 220.4 36.3731 219.233 37.6283 219.048C37.7393 219.031 37.8513 219.023 37.9635 219.023Z" fill="#C1DEE2"/>
</g>
</svg>
