<svg width="4" height="16" viewBox="0 0 4 16" fill="none" xmlns="http://www.w3.org/2000/svg">
<path d="M2.00002 8.83325C2.46026 8.83325 2.83335 8.46016 2.83335 7.99992C2.83335 7.53968 2.46026 7.16658 2.00002 7.16658C1.53978 7.16658 1.16669 7.53968 1.16669 7.99992C1.16669 8.46016 1.53978 8.83325 2.00002 8.83325Z" stroke="#98A2B3" stroke-width="1.66667" stroke-linecap="round" stroke-linejoin="round"/>
<path d="M2.00002 2.99992C2.46026 2.99992 2.83335 2.62682 2.83335 2.16659C2.83335 1.70635 2.46026 1.33325 2.00002 1.33325C1.53978 1.33325 1.16669 1.70635 1.16669 2.16659C1.16669 2.62682 1.53978 2.99992 2.00002 2.99992Z" stroke="#98A2B3" stroke-width="1.66667" stroke-linecap="round" stroke-linejoin="round"/>
<path d="M2.00002 14.6666C2.46026 14.6666 2.83335 14.2935 2.83335 13.8333C2.83335 13.373 2.46026 12.9999 2.00002 12.9999C1.53978 12.9999 1.16669 13.373 1.16669 13.8333C1.16669 14.2935 1.53978 14.6666 2.00002 14.6666Z" stroke="#98A2B3" stroke-width="1.66667" stroke-linecap="round" stroke-linejoin="round"/>
</svg>
