<svg width="17" height="15" viewBox="0 0 17 15" fill="none" xmlns="http://www.w3.org/2000/svg">
<path d="M12.1023 13.5V12.1667C12.1023 11.4594 11.8214 10.7811 11.3213 10.281C10.8212 9.78095 10.1429 9.5 9.43567 9.5H4.10234C3.39509 9.5 2.71681 9.78095 2.21672 10.281C1.71662 10.7811 1.43567 11.4594 1.43567 12.1667V13.5M16.1023 13.5V12.1667C16.1019 11.5758 15.9052 11.0018 15.5432 10.5349C15.1813 10.0679 14.6744 9.73438 14.1023 9.58667M11.4357 1.58667C12.0093 1.73353 12.5177 2.06713 12.8808 2.53487C13.2438 3.00261 13.4409 3.57789 13.4409 4.17C13.4409 4.76211 13.2438 5.33739 12.8808 5.80513C12.5177 6.27287 12.0093 6.60647 11.4357 6.75333M9.43567 4.16667C9.43567 5.63943 8.24176 6.83333 6.769 6.83333C5.29624 6.83333 4.10234 5.63943 4.10234 4.16667C4.10234 2.69391 5.29624 1.5 6.769 1.5C8.24176 1.5 9.43567 2.69391 9.43567 4.16667Z" stroke="#667085" stroke-width="1.3" stroke-linecap="round" stroke-linejoin="round"/>
</svg>
