<svg width="19" height="16" viewBox="0 0 19 16" fill="none" xmlns="http://www.w3.org/2000/svg">
<path d="M12.7269 0.932915L12.1906 1.39606L2.64977 9.8094L0.806779 10.6488L2.56827 14.5165L4.41175 13.677L5.49401 13.5308L5.49998 13.5824L5.50703 13.5978C5.66168 14.7603 6.75352 15.6337 7.96481 15.4696C7.97031 15.4689 7.97479 15.4633 7.97932 15.463C9.14775 15.3074 10.0252 14.2219 9.85208 13.0048L9.84588 12.9528L17.0211 12.0024L17.7223 11.9014L12.7269 0.932915ZM12.3518 2.67286L16.1637 11.0427L4.20376 12.6217L4.13769 12.6343L3.09484 13.1092L2.21409 11.1753L3.25646 10.7006L3.31029 10.6586L12.3516 2.67238L12.3518 2.67286ZM6.54608 13.3978L8.79404 13.0862L8.80001 13.1378L8.80662 13.1523C8.89792 13.7937 8.4234 14.3437 7.83232 14.4174C7.19113 14.5091 6.63344 14.0562 6.5591 13.4649L6.55249 13.4504L6.54608 13.3978Z" fill="#667085" stroke="#667085" stroke-width="0.4"/>
</svg>
