<svg width="19" height="16" viewBox="0 0 19 16" fill="none" xmlns="http://www.w3.org/2000/svg">
<path d="M12.7269 0.932671L12.1906 1.39581L2.64974 9.80916L0.806749 10.6485L2.56824 14.5163L4.41172 13.6767L5.49398 13.5306L5.49995 13.5821L5.507 13.5976C5.66165 14.7601 6.75349 15.6334 7.96478 15.4694C7.97028 15.4686 7.97476 15.4631 7.97929 15.4628C9.14772 15.3072 10.0252 14.2217 9.85205 13.0046L9.84585 12.9525L17.0211 12.0022L17.7223 11.9012L12.7269 0.932671ZM12.3518 2.67261L16.1637 11.0425L4.20373 12.6214L4.13766 12.634L3.09481 13.109L2.21406 11.1751L3.25643 10.7004L3.31026 10.6583L12.3516 2.67213L12.3518 2.67261ZM6.54605 13.3976L8.79401 13.086L8.79998 13.1375L8.80658 13.152C8.89789 13.7935 8.42336 14.3435 7.83229 14.4171C7.1911 14.5089 6.63341 14.056 6.55907 13.4646L6.55246 13.4501L6.54605 13.3976Z" fill="#667085" stroke="#667085" stroke-width="0.4"/>
</svg>
